<svg id="mobile_chart" xmlns="http://www.w3.org/2000/svg" width="315.53" height="540.79" viewBox="0 0 315.53 540.79">
  <g id="BG">
    <rect id="矩形_6093" data-name="矩形 6093" width="315.53" height="540.79" fill="#f4f1ed"/>
  </g>
  <g id="圖層_2" data-name="圖層 2">
    <g id="Group_11170" data-name="Group 11170">
      <path id="Path_24083" data-name="Path 24083" d="M111.66,252.98h0a3.582,3.582,0,1,1,3.58,3.72,3.649,3.649,0,0,1-3.58-3.71" fill="#b9b9b9"/>
      <path id="Path_24084" data-name="Path 24084" d="M111.66,273.94h0a3.582,3.582,0,1,1,3.58,3.72,3.649,3.649,0,0,1-3.58-3.71" fill="#b9b9b9"/>
      <path id="Path_24085" data-name="Path 24085" d="M111.66,294.9h0a3.582,3.582,0,1,1,3.58,3.72,3.649,3.649,0,0,1-3.58-3.71" fill="#b9b9b9"/>
      <path id="Path_24086" data-name="Path 24086" d="M111.66,315.86h0a3.582,3.582,0,1,1,3.58,3.72,3.649,3.649,0,0,1-3.58-3.71" fill="#b9b9b9"/>
      <path id="Path_24087" data-name="Path 24087" d="M111.66,336.82h0a3.582,3.582,0,1,1,3.58,3.72,3.649,3.649,0,0,1-3.58-3.71" fill="#b9b9b9"/>
      <path id="Path_24088" data-name="Path 24088" d="M111.66,357.78h0a3.582,3.582,0,1,1,3.58,3.72,3.649,3.649,0,0,1-3.58-3.71" fill="#b9b9b9"/>
      <path id="Path_24089" data-name="Path 24089" d="M111.66,378.74h0a3.582,3.582,0,1,1,3.58,3.72,3.649,3.649,0,0,1-3.58-3.71" fill="#b9b9b9"/>
      <path id="Path_24090" data-name="Path 24090" d="M111.66,399.69h0a3.582,3.582,0,1,1,3.58,3.72,3.649,3.649,0,0,1-3.58-3.71" fill="#b9b9b9"/>
      <path id="Path_24091" data-name="Path 24091" d="M111.66,420.66h0a3.582,3.582,0,1,1,3.58,3.72,3.649,3.649,0,0,1-3.58-3.71" fill="#b9b9b9"/>
      <path id="Path_24092" data-name="Path 24092" d="M111.66,441.61h0a3.582,3.582,0,1,1,3.58,3.72,3.649,3.649,0,0,1-3.58-3.71" fill="#b9b9b9"/>
      <path id="Path_24093" data-name="Path 24093" d="M111.66,462.57h0a3.582,3.582,0,1,1,3.58,3.72,3.649,3.649,0,0,1-3.58-3.71" fill="#b9b9b9"/>
      <path id="Path_24094" data-name="Path 24094" d="M111.66,483.53h0a3.582,3.582,0,1,1,3.58,3.72,3.649,3.649,0,0,1-3.58-3.71" fill="#b9b9b9"/>
      <path id="Path_24116" data-name="Path 24116" d="M111.66,64.34h0a3.582,3.582,0,1,1,3.58,3.72,3.649,3.649,0,0,1-3.58-3.71" fill="#b9b9b9"/>
      <path id="Path_24117" data-name="Path 24117" d="M111.66,85.3h0a3.582,3.582,0,1,1,3.58,3.72,3.649,3.649,0,0,1-3.58-3.71" fill="#b9b9b9"/>
      <path id="Path_24118" data-name="Path 24118" d="M111.66,106.26h0a3.582,3.582,0,1,1,3.58,3.72,3.649,3.649,0,0,1-3.58-3.71" fill="#b9b9b9"/>
      <path id="Path_24119" data-name="Path 24119" d="M111.66,127.22h0a3.582,3.582,0,1,1,3.58,3.72,3.649,3.649,0,0,1-3.58-3.71" fill="#b9b9b9"/>
      <path id="Path_24120" data-name="Path 24120" d="M111.66,148.18h0a3.582,3.582,0,1,1,3.58,3.72,3.649,3.649,0,0,1-3.58-3.71" fill="#b9b9b9"/>
      <path id="Path_24121" data-name="Path 24121" d="M111.66,169.14h0a3.582,3.582,0,1,1,3.58,3.72,3.649,3.649,0,0,1-3.58-3.71" fill="#b9b9b9"/>
      <path id="Path_24122" data-name="Path 24122" d="M111.66,190.1h0a3.582,3.582,0,1,1,3.58,3.72,3.649,3.649,0,0,1-3.58-3.71" fill="#b9b9b9"/>
      <path id="Path_24123" data-name="Path 24123" d="M111.66,211.06h0a3.582,3.582,0,1,1,3.58,3.72,3.649,3.649,0,0,1-3.58-3.71" fill="#b9b9b9"/>
      <path id="Path_24124" data-name="Path 24124" d="M111.66,232.02h0a3.582,3.582,0,1,1,3.58,3.72,3.649,3.649,0,0,1-3.58-3.71" fill="#b9b9b9"/>
      <path id="Path_24133" data-name="Path 24133" d="M111.66,210.61h0a3.582,3.582,0,1,1,3.58,3.72,3.649,3.649,0,0,1-3.58-3.71" fill="#b9b9b9"/>
    </g>
    <g id="组_11359" data-name="组 11359">
      <path id="Path_24129" data-name="Path 24129" d="M238.18,250.82H156.61c-10.61,0-19.22-8.3-19.22-18.54s8.6-18.54,19.22-18.54h81.57c10.61,0,19.22,8.3,19.22,18.54s-8.6,18.54-19.22,18.54" fill="#4e8960"/>
      <g id="資格審查" style="isolation: isolate">
        <g id="组_11358" data-name="组 11358" style="isolation: isolate">
          <path id="路径_24650" data-name="路径 24650" d="M164.34,227.02v1.26H158.6v-1.26Zm1.36,11.72a21.548,21.548,0,0,1-6.42,1.94l-.66-1.12a23.317,23.317,0,0,0,6.36-1.76l.72.94Zm-1.78-15.32v1.24H159v-1.24Zm9.96,6.34v7.92H160.96v-7.92Zm-1.42,2.36v-1.24H162.38v1.24Zm0,2.14V233.1H162.38v1.16Zm0,.98H162.38v1.28h10.08Zm-7.32-8.4-.8-1.06a7.422,7.422,0,0,0,2.98-3.6l1.32.16c-.14.36-.28.72-.44,1.06h7.16v1.02a12.086,12.086,0,0,1-1.74,2.64l-1-.78a9.209,9.209,0,0,0,1.26-1.68h-6.42a10.319,10.319,0,0,1-2.32,2.24Zm5.9-1.64a5.935,5.935,0,0,1-.3.9,9.145,9.145,0,0,0,5.54,2.62l-.58,1.2a9.552,9.552,0,0,1-5.52-2.82,7.135,7.135,0,0,1-4.62,2.6l-.68-1.04c2.76-.5,4.4-1.74,4.92-3.7Zm5.14,14.36-.48,1.14a40.059,40.059,0,0,0-6.68-1.84l.52-1a41.935,41.935,0,0,1,6.64,1.7Z" fill="#fff"/>
          <path id="路径_24651" data-name="路径 24651" d="M182.6,240.52h-1.42V230.48a22.6,22.6,0,0,1-2.44,5.2l-.62-1.56a18.812,18.812,0,0,0,3.04-6.56h-2.64v-1.38h2.66v-3.9h1.42v3.9h2.18v1.38H182.6v1.08c.84.96,1.7,2.02,2.56,3.2l-.02.02a21.461,21.461,0,0,0,4.58-2.48,13.752,13.752,0,0,1-2.14-2.54,19.138,19.138,0,0,1-1.66,1.9l-.92-1.1a15.408,15.408,0,0,0,3.56-5.4l1.38.3q-.3.78-.66,1.5h5.64v1.12a13.229,13.229,0,0,1-3.14,4.28,21.455,21.455,0,0,0,4.84,2.46l-.64,1.34a22.636,22.636,0,0,1-5.2-2.96,21.8,21.8,0,0,1-5.56,3.02l-.54-.72-.3.46c-.7-1.16-1.3-2.08-1.78-2.78v10.26Zm12.28.04h-1.4v-.88h-5.66v.88h-1.4V233.1h8.46v7.46Zm-1.4-2.22v-3.9h-5.66v3.9Zm-.14-12.92h-4.82c-.08.12-.14.26-.22.38a11.678,11.678,0,0,0,2.4,2.8,12.292,12.292,0,0,0,2.64-3.18Z" fill="#fff"/>
          <path id="路径_24652" data-name="路径 24652" d="M202.7,239.78v.8h-1.38v-6.7q-1.14.42-2.46.84l-.76-1.22a18.546,18.546,0,0,0,6.84-2.76H199.2v-1.22h3.42a7.729,7.729,0,0,0-.88-1.2l1.22-.46a8.544,8.544,0,0,1,1.1,1.66h2.64v-2.04c-1.5.08-3.1.12-4.82.12l-.38-1.14a61.844,61.844,0,0,0,11.18-.84l.62,1.06a41.6,41.6,0,0,1-5.2.7v2.14h2.4a17.441,17.441,0,0,0,1.32-2.02l1.2.42a10.716,10.716,0,0,1-1.1,1.6h3.66v1.22h-5.7a44.2,44.2,0,0,1,6.68,3.34l-.92,1.12a23.651,23.651,0,0,0-2.14-1.46v6.86h-1.38v-.82H202.7Zm12.72-12.2h-1.4V225H200.78v2.58h-1.4v-3.84h7.24a10.439,10.439,0,0,0-.68-1.24l1.54-.24a11.343,11.343,0,0,1,.64,1.48h7.3v3.84Zm-7.32,3.4v1.86h-1.4v-2.1h-.3a13.309,13.309,0,0,1-3.94,2.66h10.48A43.651,43.651,0,0,0,208.1,230.98Zm-5.4,3.6v1.48h4.06v-1.48Zm0,2.58v1.46h4.06v-1.46Zm9.42-1.1v-1.48h-3.96v1.48Zm0,2.56v-1.46h-3.96v1.46Z" fill="#fff"/>
          <path id="路径_24653" data-name="路径 24653" d="M226.74,229.76v-4.38h-.04c-1.56,1.94-4.12,3.54-7.64,4.78l-.76-1.28a18.272,18.272,0,0,0,7.2-3.5h-6.28v-1.32h7.52v-1.84h1.4v1.84h7.52v1.32h-7.52v.68a75.484,75.484,0,0,1,8.34,2.76l-.92,1.04a76.471,76.471,0,0,0-7.42-2.78v2.68h5.28v7.36H221.46v-7.36h5.28Zm9.26,8.92v1.34H218.82v-1.34Zm-3.98-5.82v-1.82h-9.16v1.82Zm0,1.22h-9.16v1.76h9.16Z" fill="#fff"/>
        </g>
      </g>
    </g>
    <g id="组_11361" data-name="组 11361">
      <path id="Path_24130" data-name="Path 24130" d="M238.18,333.85H156.61c-10.61,0-19.22-8.3-19.22-18.54s8.6-18.54,19.22-18.54h81.57c10.61,0,19.22,8.3,19.22,18.54s-8.6,18.54-19.22,18.54" fill="#4e8960"/>
      <g id="書面初審" style="isolation: isolate">
        <g id="组_11360" data-name="组 11360" style="isolation: isolate">
          <path id="路径_24654" data-name="路径 24654" d="M168.88,311.59v.98h6.44v1.02h-6.44v1.04h7.88v1.08H159.64v-1.08h7.84v-1.04H161.1v-1.02h6.38v-.98H161.5v-1.04h6.04v-1.1h-7.86v-.98h7.86v-1.12h-6.08v-1.04h6v-1.08h1.46v1.08h5.66v2.06h2.38v1.18h-2.38v2.04h-5.7Zm5.92,12.12h-1.4v-.92H163.24v.92h-1.4v-6.9H174.8v6.9Zm-1.4-4.44v-1.38H163.24v1.38Zm0,2.4v-1.32H163.24v1.32Zm-4.58-13.2h4.4v-1.12h-4.4Zm0,2.08h4.4v-1.1h-4.4Z" fill="#fff"/>
          <path id="路径_24655" data-name="路径 24655" d="M197.1,306.09v1.4h-8.02a13.925,13.925,0,0,1-.74,2.56h7.68v13.64h-1.38v-1H181.82v1h-1.38V310.05h6.44a14.392,14.392,0,0,0,.74-2.56H179.3v-1.4h17.8Zm-12.52,15.28V311.35h-2.76v10.02Zm5.9-7.54v-2.48h-4.56v2.48Zm0,3.72v-2.44h-4.56v2.44Zm0,3.82v-2.56h-4.56v2.56Zm4.16,0V311.35h-2.82v10.02Z" fill="#fff"/>
          <path id="路径_24656" data-name="路径 24656" d="M199.4,318.12l-.42-1.46a18.761,18.761,0,0,0,5.14-6.92h-4.7v-1.32h2.7a17.939,17.939,0,0,0-1.2-2.78l1.4-.38a19.435,19.435,0,0,1,1.14,2.88l-.7.28h2.76v1.18a16.123,16.123,0,0,1-2.24,4.3v.14c.36.24.68.48,1,.74a8.253,8.253,0,0,0,2-2.18l.88.88a8,8,0,0,1-2,2.02,17.293,17.293,0,0,1,1.62,1.58l-.78,1.2a20.42,20.42,0,0,0-2.72-2.92v8.28H201.9v-8.02c-.76.84-1.58,1.66-2.5,2.5Zm7.22-9.9v-1.38h9.94q0,10.29-.3,12.72c-.24,2.48-1.3,3.74-3.22,3.74-.44,0-1.2-.04-2.28-.08l-.36-1.32c.94.04,1.74.08,2.42.08q1.77,0,2.04-3c.12-1.18.2-4.76.24-10.76H211v1.58q-.12,9.45-5.16,13.82l-1.1-.96q4.74-4.02,4.84-12.86v-1.58h-2.96Z" fill="#fff"/>
          <path id="路径_24657" data-name="路径 24657" d="M223.5,322.82v.8h-1.38v-6.7q-1.14.42-2.46.84l-.76-1.22a18.546,18.546,0,0,0,6.84-2.76H220v-1.22h3.42a7.73,7.73,0,0,0-.88-1.2l1.22-.46a8.544,8.544,0,0,1,1.1,1.66h2.64v-2.04c-1.5.08-3.1.12-4.82.12l-.38-1.14a61.845,61.845,0,0,0,11.18-.84l.62,1.06a41.6,41.6,0,0,1-5.2.7v2.14h2.4a17.442,17.442,0,0,0,1.32-2.02l1.2.42a10.716,10.716,0,0,1-1.1,1.6h3.66v1.22h-5.7a44.206,44.206,0,0,1,6.68,3.34l-.92,1.12a23.651,23.651,0,0,0-2.14-1.46v6.86h-1.38v-.82H223.5Zm12.72-12.2h-1.4v-2.58H221.58v2.58h-1.4v-3.84h7.24a10.439,10.439,0,0,0-.68-1.24l1.54-.24a11.342,11.342,0,0,1,.64,1.48h7.3v3.84Zm-7.32,3.4v1.86h-1.4v-2.1h-.3a13.309,13.309,0,0,1-3.94,2.66h10.48a43.656,43.656,0,0,0-4.84-2.42Zm-5.4,3.6v1.48h4.06v-1.48Zm0,2.58v1.46h4.06V320.2Zm9.42-1.1v-1.48h-3.96v1.48Zm0,2.56V320.2h-3.96v1.46Z" fill="#fff"/>
        </g>
      </g>
    </g>
    <g id="组_11363" data-name="组 11363">
      <path id="Path_24131" data-name="Path 24131" d="M238.19,416.89H156.62c-10.61,0-19.22-8.3-19.22-18.54s8.6-18.54,19.22-18.54h81.57c10.61,0,19.21,8.3,19.21,18.54s-8.6,18.54-19.21,18.54" fill="#4e8960"/>
      <text id="簡報決審" transform="translate(197.765 405)" fill="#fff" font-size="20" font-family="PingFangTC-Regular, PingFang TC"><tspan x="-40" y="0">簡報決審</tspan></text>
    </g>
    <g id="组_11365" data-name="组 11365">
      <path id="Path_24132" data-name="Path 24132" d="M238.19,499.92H156.62c-10.61,0-19.22-8.3-19.22-18.54s8.6-18.54,19.22-18.54h81.57c10.61,0,19.22,8.3,19.22,18.54s-8.6,18.54-19.22,18.54" fill="#4892af"/>
      <g id="公告結果" style="isolation: isolate">
        <g id="组_11364" data-name="组 11364" style="isolation: isolate">
          <path id="路径_24662" data-name="路径 24662" d="M166.16,472.68a21.983,21.983,0,0,1-5.72,9.1l-1.14-.98a19.869,19.869,0,0,0,5.52-8.66Zm9.44,16.4-1.34.6c-.3-.68-.6-1.3-.9-1.9q-5.31.81-11.8,1.24l-.26-1.4q2.37-1.26,5.98-9.48l1.42.48a42.611,42.611,0,0,1-5.16,8.92c3.24-.2,6.3-.54,9.18-1a40.711,40.711,0,0,0-2.42-3.96l1.32-.42a42.269,42.269,0,0,1,3.98,6.92Zm-3.24-17.02a14.542,14.542,0,0,0,4.9,8.6l-1.14,1.04a16.02,16.02,0,0,1-4.88-8.3h-3.36v-1.34h4.48Z" fill="#fff"/>
          <path id="路径_24663" data-name="路径 24663" d="M180.52,478.12l-.86-1.14a10.739,10.739,0,0,0,3.68-5.32l1.44.16a13.013,13.013,0,0,1-.98,2.36h3.92v-2.84h1.46v2.84h6.54v1.38h-6.54v3.24h8.06v1.42H179.16V478.8h8.56v-3.24h-4.78a14.557,14.557,0,0,1-2.42,2.56Zm14.26,11.56h-1.46v-1.06H183.2v1.06h-1.46v-7.36h13.04v7.36Zm-1.46-2.42V483.7H183.2v3.56Z" fill="#fff"/>
          <path id="路径_24664" data-name="路径 24664" d="M206.52,483.18l-1.2.32c-.08-.34-.16-.68-.24-1a34.276,34.276,0,0,1-5.42,1.16l-.38-1.32a2.155,2.155,0,0,0,.66-.4,19.837,19.837,0,0,0,2.66-3.6c-1,.16-2.04.32-3.08.48l-.36-1.32a1.511,1.511,0,0,0,.6-.54,28.56,28.56,0,0,0,2.68-5.66l1.38.54a29.782,29.782,0,0,1-2.98,5.56c.84-.1,1.7-.22,2.54-.36.44-.76.88-1.58,1.36-2.44l1.34.48a43.069,43.069,0,0,1-4.72,7.08c1.12-.2,2.26-.44,3.42-.74q-.3-.93-.6-1.8l1.14-.36a31.763,31.763,0,0,1,1.2,3.92Zm-5.3,1.62a21.148,21.148,0,0,1-.72,4.58l-1.3-.38a17.412,17.412,0,0,0,.72-4.36Zm2.9,3.62-1.34.3c-.18-1.56-.38-2.92-.62-4.12l1.18-.26q.42,1.86.78,4.08Zm2.78-1.22-1.2.52a32.025,32.025,0,0,0-1.16-3.54l1.12-.36A25.773,25.773,0,0,1,206.9,487.2Zm4.22-13.26v-2.56h1.42v2.56h4.78v1.38h-4.78v3.04h4.34v1.38H206.82v-1.38h4.3v-3.04h-4.84v-1.38Zm5.12,15.76h-1.4v-.92h-5.92v.92h-1.4v-8.02h8.72v8.02Zm-1.4-2.28v-4.38h-5.92v4.38Z" fill="#fff"/>
          <path id="路径_24665" data-name="路径 24665" d="M234.82,472.16v7.74h-5.88v1.82h7.96v1.36h-6.68a17.672,17.672,0,0,0,7.12,4.82l-.98,1.26q-5.22-2.73-7.32-6.08h-.1v6.6h-1.48v-6.6h-.08a16.381,16.381,0,0,1-7.48,6.06l-.82-1.32a15.6,15.6,0,0,0,7.08-4.74H219.5v-1.36h7.96V479.9h-5.98v-7.74h13.34Zm-7.36,3.28v-2h-4.54v2Zm0,1.26h-4.54v1.94h4.54Zm1.48-1.26h4.46v-2h-4.46Zm4.46,1.26h-4.46v1.94h4.46Z" fill="#fff"/>
        </g>
      </g>
    </g>
    <g id="组_11367" data-name="组 11367">
      <path id="Path_24127" data-name="Path 24127" d="M238.18,84.75H156.61c-10.61,0-19.22-8.3-19.22-18.54s8.6-18.54,19.22-18.54h81.57c10.61,0,19.22,8.3,19.22,18.54s-8.6,18.54-19.22,18.54" fill="#4e8960"/>
      <g id="徵件開始" style="isolation: isolate">
        <g id="组_11366" data-name="组 11366" style="isolation: isolate">
          <path id="路径_24666" data-name="路径 24666" d="M162.42,56.73a15.227,15.227,0,0,1-3.9,5.9l-.44-1.4a13.511,13.511,0,0,0,3.1-5.08l1.24.58Zm.46,5.56a17.8,17.8,0,0,1-1.26,2.46v9.8h-1.36v-8a16.853,16.853,0,0,1-1.7,1.68l-.42-1.38a13.381,13.381,0,0,0,3.52-5.14l1.22.58Zm2.9,6.86V67.37c-.8.08-1.6.16-2.44.22l-.26-1.18a51.253,51.253,0,0,0,6.26-.68l.4,1.08q-1.23.24-2.64.42v1.92h2.66v1.18H167.1v2.12c.88-.1,1.76-.2,2.6-.32v.96a11.116,11.116,0,0,0,2.8-3.86,26.029,26.029,0,0,1-1.64-4.94l1.02-.58a23.833,23.833,0,0,0,1.24,3.88,24.91,24.91,0,0,0,1.06-6.92h-2a15.443,15.443,0,0,1-2.24,4.68l-.66-.82h-6.36V63.27h6.76v.26a21.414,21.414,0,0,0,2.16-7.32l1.28.24a27.932,27.932,0,0,1-.58,2.92h3.8v1.3h-.96a25.232,25.232,0,0,1-1.5,8.56,18.439,18.439,0,0,0,2.86,4.12l-.92,1.06a18.778,18.778,0,0,1-2.6-3.72,12.63,12.63,0,0,1-2.86,3.7l-.68-1.08c-1.92.28-3.96.5-6.16.68l-.32-1.2c.88-.06,1.74-.12,2.58-.2V70.33h-2.72V69.15h2.72Zm1.38-12.88v4.24h1.36V57.19h1.2v4.56h-6.34V57.23h1.18v3.28h1.4V56.27h1.2Z" fill="#fff"/>
          <path id="路径_24667" data-name="路径 24667" d="M184,56.69a25.18,25.18,0,0,1-1.98,4.5V74.55H180.6V63.39a25.038,25.038,0,0,1-2.1,2.52l-.46-1.54a22.268,22.268,0,0,0,4.6-8.3l1.36.62Zm3.42.88a19.689,19.689,0,0,1-.66,2.84h2.94V56.25h1.44v4.16h4.6v1.4h-4.6v4.82h5.34v1.38h-5.34v6.44H189.7V68.01h-5.88V66.63h5.88V61.81h-3.4a15.608,15.608,0,0,1-1.86,3.54l-.92-1.2A17.177,17.177,0,0,0,186,57.39l1.42.18Z" fill="#fff"/>
          <path id="路径_24668" data-name="路径 24668" d="M206.48,63.09h-5.9V74.35h-1.44V56.77h7.34v6.32Zm-1.4-5.18h-4.5v1.54h4.5Zm-4.5,4.02h4.5V60.47h-4.5Zm3.98,6.16v-2.3h-2.12V64.55h9.7v1.24H210.2v2.3h2.58v1.28H210.2v4.6h-1.32v-4.6h-3.12a8.041,8.041,0,0,1-.72,2.68,4.94,4.94,0,0,1-2.42,2.2l-.72-1.14a4.355,4.355,0,0,0,2.08-1.92,7.54,7.54,0,0,0,.48-1.82H201.9V68.09Zm4.32-2.3h-3.02v2.3h3.02Zm-.72-2.76V56.79h7.44v15.5q0,1.98-1.8,1.98-1.08,0-2.16-.06l-.34-1.28c.72.04,1.38.08,1.98.08s.9-.4.9-1.16V63.03h-6.02Zm6.02-5.08h-4.62v1.5h4.62Zm-4.62,3.94h4.62V60.47h-4.62Z" fill="#fff"/>
          <path id="路径_24669" data-name="路径 24669" d="M222.1,56.23q-.27,2.04-.54,3.78h2.96v.84a25.517,25.517,0,0,1-1.68,8.38,29.961,29.961,0,0,1,2.32,2.66l-.96,1.12a30.881,30.881,0,0,0-2-2.38,14.72,14.72,0,0,1-2.98,3.96l-.9-1.14a13.149,13.149,0,0,0,2.9-3.88c-.8-.82-1.66-1.66-2.58-2.54q.72-2.61,1.26-5.64h-1.6V60.01h1.84q.3-1.89.54-3.9l1.42.12Zm1.06,5.16h-1.82c-.38,2.1-.76,3.84-1.16,5.22.58.54,1.12,1.06,1.64,1.58a22.556,22.556,0,0,0,1.34-6.8Zm2.04,1.54c1.16-.6,2.6-2.84,4.32-6.76l1.36.46a32.037,32.037,0,0,1-3.58,6.2c2.24-.14,4.38-.38,6.4-.7-.56-1.1-1.12-2.12-1.7-3.04l1.24-.6a50.5,50.5,0,0,1,3.1,5.78l-1.34.64c-.24-.54-.46-1.06-.7-1.56-2.66.38-5.62.68-8.88.88l-.22-1.3Zm9.88,11.62H233.7v-1.2h-6.12v1.2H226.2V66.03h8.88Zm-1.38-2.56V67.35h-6.12v4.64Z" fill="#fff"/>
        </g>
      </g>
    </g>
    <g id="组_11369" data-name="组 11369">
      <path id="Path_24128" data-name="Path 24128" d="M238.18,167.79H156.61c-10.61,0-19.22-8.3-19.22-18.54s8.6-18.54,19.22-18.54h81.57c10.61,0,19.22,8.3,19.22,18.54s-8.6,18.54-19.22,18.54" fill="#4892af"/>
      <g id="徵件截止" style="isolation: isolate">
        <g id="组_11368" data-name="组 11368" style="isolation: isolate">
          <path id="路径_24670" data-name="路径 24670" d="M162.42,139.77a15.227,15.227,0,0,1-3.9,5.9l-.44-1.4a13.511,13.511,0,0,0,3.1-5.08l1.24.58Zm.46,5.56a17.8,17.8,0,0,1-1.26,2.46v9.8h-1.36v-8a16.851,16.851,0,0,1-1.7,1.68l-.42-1.38a13.381,13.381,0,0,0,3.52-5.14l1.22.58Zm2.9,6.86v-1.78c-.8.08-1.6.16-2.44.22l-.26-1.18a51.253,51.253,0,0,0,6.26-.68l.4,1.08q-1.23.24-2.64.42v1.92h2.66v1.18H167.1v2.12c.88-.1,1.76-.2,2.6-.32v.96a11.116,11.116,0,0,0,2.8-3.86,26.029,26.029,0,0,1-1.64-4.94l1.02-.58a23.834,23.834,0,0,0,1.24,3.88,24.91,24.91,0,0,0,1.06-6.92h-2a15.442,15.442,0,0,1-2.24,4.68l-.66-.82h-6.36v-1.26h6.76v.26a21.414,21.414,0,0,0,2.16-7.32l1.28.24a27.931,27.931,0,0,1-.58,2.92h3.8v1.3h-.96a25.232,25.232,0,0,1-1.5,8.56,18.439,18.439,0,0,0,2.86,4.12l-.92,1.06a18.777,18.777,0,0,1-2.6-3.72,12.63,12.63,0,0,1-2.86,3.7l-.68-1.08c-1.92.28-3.96.5-6.16.68l-.32-1.2c.88-.06,1.74-.12,2.58-.2v-2.26h-2.72v-1.18h2.72Zm1.38-12.88v4.24h1.36v-3.32h1.2v4.56h-6.34v-4.52h1.18v3.28h1.4v-4.24h1.2Z" fill="#fff"/>
          <path id="路径_24671" data-name="路径 24671" d="M184,139.73a25.18,25.18,0,0,1-1.98,4.5v13.36H180.6V146.43a25.037,25.037,0,0,1-2.1,2.52l-.46-1.54a22.268,22.268,0,0,0,4.6-8.3Zm3.42.88a19.689,19.689,0,0,1-.66,2.84h2.94v-4.16h1.44v4.16h4.6v1.4h-4.6v4.82h5.34v1.38h-5.34v6.44H189.7v-6.44h-5.88v-1.38h5.88v-4.82h-3.4a15.608,15.608,0,0,1-1.86,3.54l-.92-1.2a17.177,17.177,0,0,0,2.48-6.76l1.42.18Z" fill="#fff"/>
          <path id="路径_24672" data-name="路径 24672" d="M199.08,151.39l-.82-1a13.571,13.571,0,0,0,3.04-4.58l1.16.26c-.2.52-.44,1.02-.68,1.5h2.68a13.2,13.2,0,0,0-.64-1.4l1.38-.22q.3.72.6,1.62h3.28v1.16H205.7v1.4h2.88v1.04H205.7v1.36h2.88v1.02H205.7v1.44h3.18v.86a10.533,10.533,0,0,0,2.4-2.56,24.361,24.361,0,0,1-.86-3.2,34.852,34.852,0,0,1-.6-4.78h-11.3v-1.3h5.04v-1.88h-4v-1.28h4v-1.58h1.4v1.58h3.62v1.28h-3.62v1.88h4.78c-.08-1.48-.1-3.06-.1-4.76h1.38c0,1.76.04,3.36.12,4.76h5.16v1.3h-5.08a34.625,34.625,0,0,0,.48,4.42c.14.74.3,1.4.46,2a23.933,23.933,0,0,0,1.78-5.42l1.24.54a22.9,22.9,0,0,1-2.46,6.68c.12.32.26.62.38.88.5.98.9,1.48,1.2,1.48.32-.02.6-1.04.86-3.04l1.22.66c-.44,2.62-1.06,3.94-1.86,3.94-.68,0-1.4-.62-2.16-1.82a5.1,5.1,0,0,1-.46-.86,9.471,9.471,0,0,1-2.82,2.58l-.76-1.12.12-.08h-6.88v.96h-1.28v-7.1q-.57.72-1.2,1.38Zm5.34-2.66h-2.86v1.4h2.86Zm0,2.44h-2.86v1.36h2.86Zm0,3.82v-1.44h-2.86v1.44Zm10.72-12.54-1.06.76a23.146,23.146,0,0,0-2.14-2.94l1.06-.66a23.366,23.366,0,0,1,2.14,2.84Z" fill="#fff"/>
          <path id="路径_24673" data-name="路径 24673" d="M229.02,139.33v6.5h6.16v1.4h-6.16v8.08h7.26v1.4H218.52v-1.4h3.4V142.83h1.44v12.48h4.18V139.33h1.48Z" fill="#fff"/>
        </g>
      </g>
    </g>
    <g id="Group_11172" data-name="Group 11172">
      <path id="Path_24140" data-name="Path 24140" d="M47.12,75.22a21.914,21.914,0,0,0,12.39,5,35.3,35.3,0,0,0,8.15-.45c3.69-.56,5.65-1.93,9.26-4.99.86-1.81,2.19-3.45,2.22-5.48a1.264,1.264,0,0,0-.11-.81,1.331,1.331,0,0,0-.44-.38L65.31,59.79l15.43-1.35a1.451,1.451,0,0,0,.76-.21,1.541,1.541,0,0,0,.46-.8,13.6,13.6,0,0,0,.66-6.55,12.341,12.341,0,0,0-2.43-5.03,20.822,20.822,0,0,0-9.77-6.91,25.214,25.214,0,0,0-11.81-.97,24.108,24.108,0,0,0-15.71,8.9,20.2,20.2,0,0,0-3.93,9.99c-.71,6.84,2.81,14.02,8.14,18.35" fill="#eba74b"/>
      <path id="Path_24141" data-name="Path 24141" d="M62.78,49.69v-.15a1.24,1.24,0,0,1,1.25-1.23,2.338,2.338,0,0,1,1.83,1.01,2.133,2.133,0,0,1,.4.76,1.627,1.627,0,0,1-1.29,1.89,2.1,2.1,0,0,1-2.17-1.1,2.44,2.44,0,0,1,.19-2.42" fill="#1a1a1a"/>
    </g>
    <rect id="矩形_6094" data-name="矩形 6094" width="15.28" height="15.28" rx="7.64" transform="translate(107.61 58.74)" fill="#4e8960"/>
    <rect id="矩形_6095" data-name="矩形 6095" width="15.28" height="15.28" rx="7.64" transform="translate(107.61 141.64)" fill="#4892af"/>
    <rect id="矩形_6096" data-name="矩形 6096" width="15.28" height="15.28" rx="7.64" transform="translate(107.61 224.55)" fill="#4e8960"/>
    <rect id="矩形_6097" data-name="矩形 6097" width="15.28" height="15.28" rx="7.64" transform="translate(107.61 307.45)" fill="#4e8960"/>
    <rect id="矩形_6098" data-name="矩形 6098" width="15.28" height="15.28" rx="7.64" transform="translate(107.61 390.36)" fill="#4e8960"/>
    <rect id="矩形_6099" data-name="矩形 6099" width="15.28" height="15.28" rx="7.64" transform="translate(107.61 473.26)" fill="#4892af"/>
  </g>
</svg>
