<svg xmlns="http://www.w3.org/2000/svg" width="1071.72" height="214.97" viewBox="0 0 1071.72 214.97">
  <g id="web_chart" transform="translate(-1.47 -1.21)">
    <rect id="Rectangle_6028" data-name="Rectangle 6028" width="1071.72" height="214.97" transform="translate(1.47 1.21)" fill="#f4f1ed"/>
    <g id="Group_11173" data-name="Group 11173">
      <path id="Path_24127" data-name="Path 24127" d="M167.78,159.64H86.21c-10.61,0-19.22-8.3-19.22-18.54s8.6-18.54,19.22-18.54h81.57c10.61,0,19.22,8.3,19.22,18.54s-8.6,18.54-19.22,18.54" fill="#4e8960"/>
      <path id="Path_24128" data-name="Path 24128" d="M338.78,159.64H257.21c-10.61,0-19.22-8.3-19.22-18.54s8.6-18.54,19.22-18.54h81.57c10.61,0,19.22,8.3,19.22,18.54s-8.6,18.54-19.22,18.54" fill="#4892af"/>
      <path id="Path_24129" data-name="Path 24129" d="M504.46,159.64H422.89c-10.61,0-19.22-8.3-19.22-18.54s8.6-18.54,19.22-18.54h81.57c10.61,0,19.22,8.3,19.22,18.54s-8.6,18.54-19.22,18.54" transform="translate(0 0.135)" fill="#4e8960"/>
      <path id="Path_24130" data-name="Path 24130" d="M672.79,159.64H591.22c-10.61,0-19.22-8.3-19.22-18.54s8.6-18.54,19.22-18.54h81.57c10.61,0,19.22,8.3,19.22,18.54s-8.6,18.54-19.22,18.54" fill="#4e8960"/>
      <path id="Path_24131" data-name="Path 24131" d="M839.79,159.64H758.22c-10.61,0-19.22-8.3-19.22-18.54s8.6-18.54,19.22-18.54h81.57c10.61,0,19.21,8.3,19.21,18.54s-8.6,18.54-19.21,18.54" fill="#4e8960"/>
      <path id="Path_24132" data-name="Path 24132" d="M1007.78,159.64H926.21c-10.61,0-19.22-8.3-19.22-18.54s8.6-18.54,19.22-18.54h81.57c10.61,0,19.22,8.3,19.22,18.54s-8.6,18.54-19.22,18.54" fill="#4892af"/>
      <g id="公告結果" style="isolation: isolate">
        <g id="组_11351" data-name="组 11351" style="isolation: isolate">
          <path id="路径_24622" data-name="路径 24622" d="M935.76,132.4a21.983,21.983,0,0,1-5.72,9.1l-1.14-.98a19.869,19.869,0,0,0,5.52-8.66l1.34.54Zm9.44,16.4-1.34.6c-.3-.68-.6-1.3-.9-1.9q-5.31.81-11.8,1.24l-.26-1.4q2.37-1.26,5.98-9.48l1.42.48a42.612,42.612,0,0,1-5.16,8.92c3.24-.2,6.3-.54,9.18-1a40.727,40.727,0,0,0-2.42-3.96l1.32-.42a42.27,42.27,0,0,1,3.98,6.92Zm-3.24-17.02a14.541,14.541,0,0,0,4.9,8.6l-1.14,1.04a16.02,16.02,0,0,1-4.88-8.3h-3.36v-1.34Z" fill="#fff"/>
          <path id="路径_24623" data-name="路径 24623" d="M950.12,137.84l-.86-1.14a10.739,10.739,0,0,0,3.68-5.32l1.44.16a13.017,13.017,0,0,1-.98,2.36h3.92v-2.84h1.46v2.84h6.54v1.38h-6.54v3.24h8.06v1.42H948.76v-1.42h8.56v-3.24h-4.78A14.558,14.558,0,0,1,950.12,137.84Zm14.26,11.56h-1.46v-1.06H952.8v1.06h-1.46v-7.36h13.04v7.36Zm-1.46-2.42v-3.56H952.8v3.56Z" fill="#fff"/>
          <path id="路径_24624" data-name="路径 24624" d="M976.12,142.9l-1.2.32c-.08-.34-.16-.68-.24-1a34.276,34.276,0,0,1-5.42,1.16l-.38-1.32a2.155,2.155,0,0,0,.66-.4,19.836,19.836,0,0,0,2.66-3.6c-1,.16-2.04.32-3.08.48l-.36-1.32a1.511,1.511,0,0,0,.6-.54,28.56,28.56,0,0,0,2.68-5.66l1.38.54a29.78,29.78,0,0,1-2.98,5.56c.84-.1,1.7-.22,2.54-.36.44-.76.88-1.58,1.36-2.44l1.34.48a43.069,43.069,0,0,1-4.72,7.08c1.12-.2,2.26-.44,3.42-.74q-.3-.93-.6-1.8l1.14-.36a31.76,31.76,0,0,1,1.2,3.92Zm-5.3,1.62a21.15,21.15,0,0,1-.72,4.58l-1.3-.38a17.409,17.409,0,0,0,.72-4.36Zm2.9,3.62-1.34.3c-.18-1.56-.38-2.92-.62-4.12l1.18-.26q.42,1.86.78,4.08Zm2.78-1.22-1.2.52a32.024,32.024,0,0,0-1.16-3.54l1.12-.36a25.772,25.772,0,0,1,1.24,3.38Zm4.22-13.26V131.1h1.42v2.56h4.78v1.38h-4.78v3.04h4.34v1.38H976.42v-1.38h4.3v-3.04h-4.84v-1.38Zm5.12,15.76h-1.4v-.92h-5.92v.92h-1.4V141.4h8.72v8.02Zm-1.4-2.28v-4.38h-5.92v4.38Z" fill="#fff"/>
          <path id="路径_24625" data-name="路径 24625" d="M1004.42,131.88v7.74h-5.88v1.82h7.96v1.36h-6.68a17.672,17.672,0,0,0,7.12,4.82l-.98,1.26q-5.22-2.73-7.32-6.08h-.1v6.6h-1.48v-6.6h-.08a16.381,16.381,0,0,1-7.48,6.06l-.82-1.32a15.6,15.6,0,0,0,7.08-4.74H989.1v-1.36h7.96v-1.82h-5.98v-7.74h13.34Zm-7.36,3.28v-2h-4.54v2Zm0,1.26h-4.54v1.94h4.54Zm1.48-1.26H1003v-2h-4.46Zm4.46,1.26h-4.46v1.94H1003Z" fill="#fff"/>
        </g>
      </g>
      <g id="Group_11170" data-name="Group 11170">
        <path id="Path_24083" data-name="Path 24083" d="M317.57,87.24h0a3.582,3.582,0,1,1,3.72-3.58,3.649,3.649,0,0,1-3.71,3.58" fill="#b9b9b9"/>
        <path id="Path_24084" data-name="Path 24084" d="M338.53,87.24h0a3.582,3.582,0,1,1,3.72-3.58,3.649,3.649,0,0,1-3.71,3.58" fill="#b9b9b9"/>
        <path id="Path_24085" data-name="Path 24085" d="M359.49,87.24h0a3.582,3.582,0,1,1,3.72-3.58,3.649,3.649,0,0,1-3.71,3.58" fill="#b9b9b9"/>
        <path id="Path_24086" data-name="Path 24086" d="M380.45,87.24h0a3.582,3.582,0,1,1,3.72-3.58,3.649,3.649,0,0,1-3.71,3.58" fill="#b9b9b9"/>
        <path id="Path_24087" data-name="Path 24087" d="M401.4,87.24h0a3.582,3.582,0,1,1,3.72-3.58,3.649,3.649,0,0,1-3.71,3.58" fill="#b9b9b9"/>
        <path id="Path_24088" data-name="Path 24088" d="M422.36,87.24h0a3.582,3.582,0,1,1,3.72-3.58,3.649,3.649,0,0,1-3.71,3.58" fill="#b9b9b9"/>
        <path id="Path_24089" data-name="Path 24089" d="M443.32,87.24h0a3.582,3.582,0,1,1,3.72-3.58,3.649,3.649,0,0,1-3.71,3.58" fill="#b9b9b9"/>
        <path id="Path_24090" data-name="Path 24090" d="M464.28,87.24h0A3.582,3.582,0,1,1,468,83.66a3.649,3.649,0,0,1-3.71,3.58" fill="#b9b9b9"/>
        <path id="Path_24091" data-name="Path 24091" d="M485.25,87.24h0a3.582,3.582,0,1,1,3.72-3.58,3.649,3.649,0,0,1-3.71,3.58" fill="#b9b9b9"/>
        <path id="Path_24092" data-name="Path 24092" d="M506.2,87.24h0a3.582,3.582,0,1,1,3.72-3.58,3.649,3.649,0,0,1-3.71,3.58" fill="#b9b9b9"/>
        <path id="Path_24093" data-name="Path 24093" d="M527.16,87.24h0a3.582,3.582,0,1,1,3.72-3.58,3.649,3.649,0,0,1-3.71,3.58" fill="#b9b9b9"/>
        <path id="Path_24094" data-name="Path 24094" d="M548.12,87.24h0a3.582,3.582,0,1,1,3.72-3.58,3.649,3.649,0,0,1-3.71,3.58" fill="#b9b9b9"/>
        <path id="Path_24095" data-name="Path 24095" d="M569.08,87.24h0a3.582,3.582,0,1,1,3.71-3.58,3.649,3.649,0,0,1-3.71,3.58" fill="#b9b9b9"/>
        <path id="Path_24096" data-name="Path 24096" d="M590.04,87.24h0a3.582,3.582,0,1,1,3.72-3.58,3.649,3.649,0,0,1-3.71,3.58" fill="#b9b9b9"/>
        <path id="Path_24097" data-name="Path 24097" d="M611,87.24h0a3.582,3.582,0,1,1,3.72-3.58,3.649,3.649,0,0,1-3.71,3.58" fill="#b9b9b9"/>
        <path id="Path_24098" data-name="Path 24098" d="M631.96,87.24h0a3.582,3.582,0,1,1,3.72-3.58,3.649,3.649,0,0,1-3.71,3.58" fill="#b9b9b9"/>
        <path id="Path_24099" data-name="Path 24099" d="M652.92,87.24h0a3.582,3.582,0,1,1,3.72-3.58,3.649,3.649,0,0,1-3.71,3.58" fill="#b9b9b9"/>
        <path id="Path_24100" data-name="Path 24100" d="M673.88,87.24h0a3.582,3.582,0,1,1,3.72-3.58,3.649,3.649,0,0,1-3.71,3.58" fill="#b9b9b9"/>
        <path id="Path_24101" data-name="Path 24101" d="M694.84,87.24h0a3.582,3.582,0,1,1,3.72-3.58,3.649,3.649,0,0,1-3.71,3.58" fill="#b9b9b9"/>
        <path id="Path_24102" data-name="Path 24102" d="M715.8,87.24h0a3.582,3.582,0,1,1,3.72-3.58,3.649,3.649,0,0,1-3.71,3.58" fill="#b9b9b9"/>
        <path id="Path_24103" data-name="Path 24103" d="M736.75,87.24h0a3.582,3.582,0,1,1,3.72-3.58,3.649,3.649,0,0,1-3.71,3.58" fill="#b9b9b9"/>
        <path id="Path_24104" data-name="Path 24104" d="M757.72,87.24h0a3.582,3.582,0,1,1,3.72-3.58,3.649,3.649,0,0,1-3.71,3.58" fill="#b9b9b9"/>
        <path id="Path_24105" data-name="Path 24105" d="M778.67,87.24h0a3.582,3.582,0,1,1,3.72-3.58,3.649,3.649,0,0,1-3.71,3.58" fill="#b9b9b9"/>
        <path id="Path_24106" data-name="Path 24106" d="M799.63,87.24h0a3.582,3.582,0,1,1,3.72-3.58,3.649,3.649,0,0,1-3.71,3.58" fill="#b9b9b9"/>
        <path id="Path_24107" data-name="Path 24107" d="M820.59,87.24h0a3.582,3.582,0,1,1,3.72-3.58,3.649,3.649,0,0,1-3.71,3.58" fill="#b9b9b9"/>
        <path id="Path_24108" data-name="Path 24108" d="M841.55,87.24h0a3.582,3.582,0,1,1,3.72-3.58,3.649,3.649,0,0,1-3.71,3.58" fill="#b9b9b9"/>
        <path id="Path_24109" data-name="Path 24109" d="M862.51,87.24h0a3.582,3.582,0,1,1,3.72-3.58,3.649,3.649,0,0,1-3.71,3.58" fill="#b9b9b9"/>
        <path id="Path_24110" data-name="Path 24110" d="M883.47,87.24h0a3.582,3.582,0,1,1,3.72-3.58,3.649,3.649,0,0,1-3.71,3.58" fill="#b9b9b9"/>
        <path id="Path_24111" data-name="Path 24111" d="M904.43,87.24h0a3.582,3.582,0,1,1,3.72-3.58,3.649,3.649,0,0,1-3.71,3.58" fill="#b9b9b9"/>
        <path id="Path_24112" data-name="Path 24112" d="M925.39,87.24h0a3.582,3.582,0,1,1,3.72-3.58,3.649,3.649,0,0,1-3.71,3.58" fill="#b9b9b9"/>
        <path id="Path_24113" data-name="Path 24113" d="M946.35,87.24h0a3.582,3.582,0,1,1,3.72-3.58,3.649,3.649,0,0,1-3.71,3.58" fill="#b9b9b9"/>
        <path id="Path_24114" data-name="Path 24114" d="M967.31,87.24h0a3.582,3.582,0,1,1,3.72-3.58,3.649,3.649,0,0,1-3.71,3.58" fill="#4892af"/>
        <path id="Path_24116" data-name="Path 24116" d="M128.93,87.24h0a3.582,3.582,0,1,1,3.72-3.58,3.649,3.649,0,0,1-3.71,3.58" fill="#b9b9b9"/>
        <path id="Path_24117" data-name="Path 24117" d="M149.89,87.24h0a3.582,3.582,0,1,1,3.72-3.58,3.649,3.649,0,0,1-3.71,3.58" fill="#b9b9b9"/>
        <path id="Path_24118" data-name="Path 24118" d="M170.85,87.24h0a3.582,3.582,0,1,1,3.72-3.58,3.649,3.649,0,0,1-3.71,3.58" fill="#b9b9b9"/>
        <path id="Path_24119" data-name="Path 24119" d="M191.81,87.24h0a3.582,3.582,0,1,1,3.72-3.58,3.649,3.649,0,0,1-3.71,3.58" fill="#b9b9b9"/>
        <path id="Path_24120" data-name="Path 24120" d="M212.77,87.24h0a3.582,3.582,0,1,1,3.72-3.58,3.649,3.649,0,0,1-3.71,3.58" fill="#b9b9b9"/>
        <path id="Path_24121" data-name="Path 24121" d="M233.73,87.24h0a3.582,3.582,0,1,1,3.72-3.58,3.649,3.649,0,0,1-3.71,3.58" fill="#b9b9b9"/>
        <path id="Path_24122" data-name="Path 24122" d="M254.69,87.24h0a3.582,3.582,0,1,1,3.72-3.58,3.649,3.649,0,0,1-3.71,3.58" fill="#b9b9b9"/>
        <path id="Path_24123" data-name="Path 24123" d="M275.65,87.24h0a3.582,3.582,0,1,1,3.72-3.58,3.649,3.649,0,0,1-3.71,3.58" fill="#b9b9b9"/>
        <path id="Path_24124" data-name="Path 24124" d="M296.61,87.24h0a3.582,3.582,0,1,1,3.72-3.58,3.649,3.649,0,0,1-3.71,3.58" fill="#b9b9b9"/>
        <path id="Path_24133" data-name="Path 24133" d="M275.2,87.24h0a3.582,3.582,0,1,1,3.72-3.58,3.649,3.649,0,0,1-3.71,3.58" fill="#b9b9b9"/>
      </g>
      <g id="Group_11172" data-name="Group 11172">
        <path id="Path_24140" data-name="Path 24140" d="M56.43,99.53c-6.34-2.89-11.5-9.01-12.3-15.83a19.956,19.956,0,0,1,1.75-10.69,25.8,25.8,0,0,1,13.9-12.54,27.142,27.142,0,0,1,12.15-1.98,21.165,21.165,0,0,1,11.41,4.3,11.688,11.688,0,0,1,3.57,4.29,12.989,12.989,0,0,1,.79,6.53,1.5,1.5,0,0,1-.29.89,1.728,1.728,0,0,1-.73.39L71.39,80.02l15.27,4.81a1.316,1.316,0,0,1,.53.26,1.235,1.235,0,0,1,.29.76,13.7,13.7,0,0,1-.08,6.01c-1.15,3.61-4.99,5.68-8.6,7.14a37.491,37.491,0,0,1-8.15,2.44,24.982,24.982,0,0,1-14.22-1.91" fill="#eba74b"/>
        <path id="Path_24141" data-name="Path 24141" d="M67.1,69.13a2.442,2.442,0,0,0,.34,2.4,2.111,2.111,0,0,0,2.36.6,1.628,1.628,0,0,0,.85-2.12,2.176,2.176,0,0,0-.56-.65,2.341,2.341,0,0,0-2.01-.58,1.229,1.229,0,0,0-.95,1.47.833.833,0,0,0,.04.15" fill="#1a1a1a"/>
      </g>
      <text id="徵件開始" transform="translate(127.33 147.695)" fill="#fff" font-size="20" font-family="PingFangTC-Regular, PingFang TC"><tspan x="-40" y="0">徵件開始</tspan></text>
      <text id="徵件截止" transform="translate(298.33 147.695)" fill="#fff" font-size="20" font-family="PingFangTC-Regular, PingFang TC"><tspan x="-40" y="0">徵件截止</tspan></text>
      <text id="資格審查" transform="translate(463.33 147.695)" fill="#fff" font-size="20" font-family="PingFangTC-Regular, PingFang TC"><tspan x="-40" y="0">資格審查</tspan></text>
      <text id="書面初審" transform="translate(632.33 147.695)" fill="#fff" font-size="20" font-family="PingFangTC-Regular, PingFang TC"><tspan x="-40" y="0">書面初審</tspan></text>
      <text id="簡報決審" transform="translate(799.33 147.695)" fill="#fff" font-size="20" font-family="PingFangTC-Regular, PingFang TC"><tspan x="-40" y="0">簡報決審</tspan></text>
    </g>
    <rect id="矩形_6081" data-name="矩形 6081" width="19.45" height="19.45" rx="9.72" transform="translate(118.47 72.98)" fill="#4e8960"/>
    <rect id="矩形_6082" data-name="矩形 6082" width="19.45" height="19.45" rx="9.72" transform="translate(454.38 72.98)" fill="#4e8960"/>
    <rect id="矩形_6083" data-name="矩形 6083" width="19.45" height="19.45" rx="9.72" transform="translate(622.34 72.98)" fill="#4e8960"/>
    <rect id="矩形_6084" data-name="矩形 6084" width="19.45" height="19.45" rx="9.72" transform="translate(790.3 72.98)" fill="#4e8960"/>
    <rect id="矩形_6085" data-name="矩形 6085" width="19.45" height="19.45" rx="9.72" transform="translate(286.43 72.98)" fill="#4892af"/>
    <rect id="矩形_6086" data-name="矩形 6086" width="19.45" height="19.45" rx="9.72" transform="translate(958.25 72.98)" fill="#4892af"/>
  </g>
</svg>
