<svg id="Component_25_13" data-name="Component 25 – 13" xmlns="http://www.w3.org/2000/svg" width="76" height="83" viewBox="0 0 76 83">
  <rect id="Rectangle_6018" data-name="Rectangle 6018" width="76" height="83" opacity="0.36"/>
  <path id="Path_24076" data-name="Path 24076" d="M29.771,17.8l-.006,0a1.907,1.907,0,0,0-.6-.38,1.913,1.913,0,0,0-1.422,0,1.846,1.846,0,0,0-.595.379l-.009.006L17,27.524a1.731,1.731,0,0,0,0,2.522,1.916,1.916,0,0,0,2.631,0L26.6,23.37V47.553a1.861,1.861,0,0,0,3.719,0V23.369l6.965,6.678a1.916,1.916,0,0,0,2.631,0,1.731,1.731,0,0,0,0-2.522Z" transform="translate(9.545 9.071)" fill="#fff"/>
  <path id="Path_24077" data-name="Path 24077" d="M19.341,17.441H35.586a1.829,1.829,0,0,0,1.637-1.973,1.83,1.83,0,0,0-1.637-1.973H19.341A1.83,1.83,0,0,0,17.7,15.467a1.829,1.829,0,0,0,1.637,1.973" transform="translate(10.296 3.223)" fill="#fff"/>
</svg>
