<svg xmlns="http://www.w3.org/2000/svg" width="100.054" height="119.568" viewBox="0 0 100.054 119.568">
  <g id="组_11156" data-name="组 11156" transform="translate(-1454.505 -1752.484)">
    <path id="路径_23928" data-name="路径 23928" d="M8.579,10.859a13.334,13.334,0,0,1,5.339-8.845l-1.1-.448c.465,1.829.846,3.706,1.4,5.51.464,1.514,1.287,1.788,2.8,2.013l11.336,1.683a.784.784,0,0,0,.923-.524,26.636,26.636,0,0,1,6.037-8.984L34.029.733c-.24,3.616-.588,7.243-.714,10.864-.11,3.14,1.653,5.465,3.111,8.1,2.961,5.346,5.6,10.87,8.712,16.135a.751.751,0,0,0,1.3-.757C43.455,30.026,40.9,24.743,38.089,19.6c-1.448-2.645-3.416-5.07-3.263-8.22.172-3.552.467-7.1.7-10.652A.757.757,0,0,0,34.249.2,28.449,28.449,0,0,0,27.825,9.85l.923-.524L19.1,7.893a19.973,19.973,0,0,1-2.412-.358c-.875-.246-.991-.717-1.2-1.547q-.612-2.41-1.223-4.821a.755.755,0,0,0-1.1-.448A14.778,14.778,0,0,0,7.133,10.46c-.146.945,1.3,1.352,1.446.4" transform="translate(1455 1753)" fill="#fff" stroke="#fff" stroke-width="1"/>
    <path id="路径_23929" data-name="路径 23929" d="M24.684,68.31c.04-5.69,2.259-11.021,4.989-15.921,2.442-4.382,5.449-8.622,9.505-11.653,8.386-6.267,19.436-5.358,28.807-2.036,8.93,3.166,17.937,8.565,23.591,16.325a29.672,29.672,0,0,1,5.439,14.222c.334,2.816.436,5.658.551,8.49a46.305,46.305,0,0,1-.255,8.864c-.836,5.47-3.685,10.242-6.373,14.978-2.131,3.755-3.283,8.065-5.682,11.657a8.038,8.038,0,0,1-6.007,3.849c-2.454.158-4.827-.875-7.19-1.375-5.578-1.181-11.338-.667-16.992-.739q-4.566-.059-9.12-.421a39.862,39.862,0,0,1-8.4-1.211c-5.079-1.539-6.924-6.009-8.447-10.649a62.145,62.145,0,0,0-6.388-13.469c-2.867-4.639-5.784-9.2-7.572-14.393a82.354,82.354,0,0,1-3.45-16.381c-.731-5.675-1.7-11.579-.771-17.285a5.481,5.481,0,0,0,.006-3.252,9.183,9.183,0,0,0-2.344-2.6,34.726,34.726,0,0,1-4.826-5.291A11.2,11.2,0,0,1,1.5,23.3a12.136,12.136,0,0,1,2.725-6.755A35.627,35.627,0,0,1,9.355,11.3c.728-.636-.336-1.694-1.06-1.06C4.654,13.424.691,17.3.076,22.353c-.6,4.942,2.474,9.072,5.766,12.392.865.873,1.765,1.708,2.659,2.551a2.8,2.8,0,0,1,1.2,1.979,21.4,21.4,0,0,1-.393,2.619,41.787,41.787,0,0,0,.022,9.178,145.163,145.163,0,0,0,2.557,17.641A53.732,53.732,0,0,0,18.051,84.5c2.918,4.966,6.377,9.694,8.421,15.121,1.581,4.2,2.438,9.064,5.749,12.346,3.915,3.879,10.313,3.866,15.449,4.21,6.364.427,12.735-.019,19.091.361a50.145,50.145,0,0,1,8.788,1.61,10.039,10.039,0,0,0,6.717-.32c4.21-1.935,5.864-6.591,7.53-10.571,2.039-4.869,5.177-9.172,7.185-14.061,2.365-5.759,2.267-11.69,1.981-17.8-.263-5.621-.783-11.218-3.236-16.363-4.245-8.9-12.763-15.175-21.462-19.328-9.224-4.4-20.581-7.233-30.459-3.266A27.677,27.677,0,0,0,32.3,45.594a49.471,49.471,0,0,0-7.721,14.468,27.2,27.2,0,0,0-1.394,8.248.75.75,0,0,0,1.5,0" transform="translate(1455 1753)" fill="#fff" stroke="#fff" stroke-width="1"/>
  </g>
</svg>
