<svg xmlns="http://www.w3.org/2000/svg" width="251.361" height="131.458" viewBox="0 0 251.361 131.458"><g transform="translate(-7693.339 -6112.4)"><path d="M336.744,38.721c-.5-4.052-2.872-9.493-9.658-5.545-3.623,2.109-5.927,6.669-10.678,3.927-1.623-.937-2.5-2.564-3.766-3.84-1.523-1.536-2.955-3.167-4.447-4.742L296.7,16.415c-3.1-3.263-6.638-6.747-11.125-7.033q.9,3.9,1.8,7.8c.833,3.606,1.748,7.372,4.178,10.161a3.156,3.156,0,0,1,.773,1.163,3.032,3.032,0,0,1-.048,1.263c-.4,2.317-.122,5.107,1.853,6.382a5.741,5.741,0,0,1,1.653,1.124,3.778,3.778,0,0,1,.469,2.191,11.691,11.691,0,0,0,3.2,7.545c-.646.134-.859,10.561,12.665,15.116,4.829,1.623,10.435.473,14.682-2.334,4.925-3.258,7.736-8.938,9.255-14.643a16.514,16.514,0,0,0,.69-6.426" transform="translate(7407.762 6103.018)" fill="#fff"/><path d="M297.128,16.36c.7-.755,3.345-.286,4.013-1.072.126.039.065.226-.017.33a15.69,15.69,0,0,1-2.343,2.3,3.6,3.6,0,0,1,1.531,1.5,11.152,11.152,0,0,1-2.464.043" transform="translate(7446.329 6122.736)" fill="#fff"/><path d="M302.522,18.783c3.328.312,8.109-.39,11.368-.985,1.809-.33,10.1-1.605,10.843,0,.842,1.827-5.584,4.252-6.968,5.315-2.217,1.705-3.323,4.677-5.91,5.771a20.2,20.2,0,0,1-7.979,1.575,1.964,1.964,0,0,0-1.245.269c-.291.234-.395.625-.629.911a2.444,2.444,0,0,1-1.805.616c-1.228.039-2.455.087-3.688.134-.443.026-1.072-.2-.95-.625" transform="translate(7441.035 6128.471)" fill="#fff"/><path d="M300.315,20.194a10.016,10.016,0,0,1-4.738,1.349c-2.434.152-5.159.2-7.137,2.269a2.043,2.043,0,0,0-.694,1.6c.117.6.738.764,1.284.794a9.58,9.58,0,0,0,2.829-.273c-.525,1.271.113,2.764,1.219,2.859.66.061,1.553-.2,1.8.464a3.582,3.582,0,0,1,.074.846,1.433,1.433,0,0,0,1.757,1.219A5.1,5.1,0,0,0,299,29.974a28.568,28.568,0,0,0,4.859-5.5c.108-.165.23-.325.343-.486Z" transform="translate(7414.943 6139.117)" fill="#fff"/><path d="M315.913,30.654A147.425,147.425,0,0,0,436.241,65.117c2.061-.338,1.189-3.475-.863-3.137A143.922,143.922,0,0,1,318.213,28.355c-1.566-1.38-3.879.915-2.3,2.3" transform="translate(7507.281 6164.942)" fill="#fff"/><path d="M322.923,32.764a29.374,29.374,0,0,0-2.785,16.179c.126,1.085,1.332,2.2,2.447,1.4q6.847-4.92,13.693-9.836a1.675,1.675,0,0,0,.586-2.226,1.637,1.637,0,0,0-2.226-.586q-6.846,4.92-13.7,9.84,1.23.7,2.451,1.406a26.282,26.282,0,0,1,2.343-14.535,1.677,1.677,0,0,0-.586-2.23,1.643,1.643,0,0,0-2.226.586" transform="translate(7522.5 6178.43)" fill="#fff"/><path d="M325.846,36.618q.579,5.115,1.154,10.227a1.651,1.651,0,0,0,2.452,1.406,31.186,31.186,0,0,0,10.3-9.719,1.627,1.627,0,0,0-2.807-1.644,27.7,27.7,0,0,1-9.142,8.552l2.447,1.406q-.573-5.115-1.154-10.227a1.668,1.668,0,0,0-1.627-1.627c-.8.035-1.731.72-1.627,1.627" transform="translate(7542.185 6188.518)" fill="#fff"/><path d="M331.229,40.792a29.959,29.959,0,0,0,3.562,8.552,1.65,1.65,0,0,0,2.555.33,26.379,26.379,0,0,0,7.563-11.346,1.636,1.636,0,0,0-1.137-2,1.664,1.664,0,0,0-2,1.132c-.169.5-.352.994-.555,1.475.065-.152-.022.056-.039.1-.061.135-.122.269-.182.4-.109.239-.221.477-.339.712a24.987,24.987,0,0,1-1.588,2.72,23.165,23.165,0,0,1-4.026,4.512l2.555.33a26.434,26.434,0,0,1-3.232-7.775,1.627,1.627,0,1,0-3.137.863" transform="translate(7560.023 6192.822)" fill="#fff"/><path d="M335.449,39.4a25.769,25.769,0,0,0,3.085,9.693,1.64,1.64,0,0,0,2.556.325q4.581-5.011,9.168-10.031a1.626,1.626,0,0,0-2.3-2.3l-9.172,10.031,2.555.33A21.779,21.779,0,0,1,338.7,39.4a1.677,1.677,0,0,0-1.627-1.627,1.636,1.636,0,0,0-1.627,1.627" transform="translate(7574.248 6193.962)" fill="#fff"/></g></svg>