<?xml version="1.0" encoding="UTF-8"?>
<svg id="_圖層_2" data-name="圖層 2" xmlns="http://www.w3.org/2000/svg" width="209" height="133" viewBox="0 0 209 133">
  <defs>
    <style>
      .cls-1 {
        fill: #666;
      }
    </style>
  </defs>
  <g id="Group_11100-2" data-name="Group 11100-2">
    <path id="Path_24019" data-name="Path 24019" class="cls-1" d="m180.44,118.5c-1.9-4.95-3.89-9.94-7.11-14.2-2.98-3.68-6.64-6.75-10.78-9.04-4.16-2.5-8.55-4.66-12.46-7.57-4.54-3.38-7.49-7.99-10.86-12.44-1.7-2.24-3.49-4.4-5.29-6.55-1.71-2.05-3.88-5.25-2.11-7.93,1.32-1.99,4.18-2.25,6.31-1.74,2.6.66,4.89,2.2,6.48,4.36,1.44,1.87,2.6,4,4.49,5.48,1.78,1.35,4.01,1.97,6.23,1.75,4.71-.43,8.23-4.02,9.51-8.43.64-2.21.88-4.86-.23-6.96-1.16-2.2-3.61-2.6-5.8-1.76-1.23.55-2.42,1.18-3.56,1.89-1.19.64-2.41,1.21-3.65,1.71-2.42,1.02-4.92,1.85-7.48,2.48-.41.13-.63.56-.5.97.12.39.52.61.92.52,4.26-1.05,8.37-2.67,12.19-4.82,2.07-1.21,5.46-3.11,6.76.09.82,2.01.34,4.51-.38,6.47-1.74,4.72-7.15,8.23-12.07,5.79-2.34-1.16-3.64-3.52-5.15-5.53-1.29-1.81-3-3.28-4.99-4.28-3.27-1.55-8.59-1.91-10.39,2.02-2.18,4.74,3.08,9.27,5.67,12.55,3.39,4.3,6.22,9.2,10.26,12.95,3.39,3.14,7.44,5.44,11.45,7.71,4.59,2.59,9.3,5.22,12.91,9.14,4.09,4.44,6.4,10.14,8.71,15.63.23.55,1.13.32.91-.25"/>
    <path id="Path_24020" data-name="Path 24020" class="cls-1" d="m137.16,58.12c-.54-1.88-.85-3.83-.93-5.78-.06-1.74-.1-3.76,1.44-4.9,1.24-.75,2.64-1.2,4.09-1.32,1.82-.3,3.64-.63,5.46-.95,3.65-.64,7.34-1.52,11.03-1.91,1.76-.27,3.56.04,5.12.89,1.2.81,2.61,1.26,4.06,1.27.91-.11,1.84-.08,2.74.09.91.35,1.75.87,2.45,1.54,1.24,1.03,2.38,2.17,3.41,3.41,1.23,1.38,2.14,3.01,2.66,4.78.43,1.64.62,3.34.92,5,1.24,7.12,2.87,14.16,4.87,21.1,1.12,3.83,2.36,7.63,3.74,11.38,1.17,3.16,2.15,7.11,4.94,9.23.57.43,1.2-.48.74-.96-1.18-1.4-2.1-3.02-2.69-4.75-.71-1.75-1.39-3.52-2.03-5.3-1.31-3.62-2.5-7.29-3.56-11-2.08-7.35-3.75-14.82-5-22.36-.2-1.77-.69-3.49-1.44-5.1-.83-1.48-1.84-2.84-3.01-4.06-1.13-1.24-2.38-2.36-3.74-3.34-1.41-.94-3.12-1.33-4.8-1.09-.95.07-1.91-.13-2.75-.58-.69-.42-1.4-.79-2.14-1.11-1.64-.52-3.38-.64-5.07-.33-3.76.5-7.5,1.36-11.22,2.08-2.09.4-4.21.74-6.27,1.25-1.44.25-2.77.96-3.78,2.02-1.05,1.29-1.05,3.01-.97,4.59.12,2.16.54,4.3,1.27,6.34.04.13.18.2.31.15.12-.04.19-.16.16-.28"/>
    <path id="Path_24021" data-name="Path 24021" class="cls-1" d="m147.24,57.97c-2.51-2.41-4.77-5.08-6.73-7.96-.14-.22-.43-.28-.65-.14-.21.13-.28.4-.16.62,1.66,3.19,3.93,6.02,6.7,8.33.57.51,1.42-.32.85-.85"/>
    <path id="Path_24022" data-name="Path 24022" class="cls-1" d="m142.42,80.11c-1.58-1.4-2.7-3.9-4.28-5.3-.03,0-.07.01-.1.01-1.16,3.72-7.6,14.92-8.28,16.29-.24.37-.4.79-.49,1.23-.09,1.21,1.61,3.25,2.78,3.56.19.08.41.08.59-.01.11-.09.19-.21.24-.34,2.42-5.3,6.98-9.33,9.78-14.43.08-.13.13-.27.14-.42-.04-.24-.18-.46-.38-.6"/>
    <path id="Path_24023" data-name="Path 24023" class="cls-1" d="m187.55,14.31c-1.04-.52-2.14-.95-3.2-1.42-1.12-.56-2.28-1.04-3.46-1.45-2.08-.61-3.06.71-4.17,2.27-1.54,2.15-3.07,4.32-4.59,6.49-2.99,4.29-5.92,8.61-8.8,12.98-6.16,9.33-12.06,18.83-17.7,28.49-.33.19-.54.55-.54.93-.1.17-.21.35-.31.53-.12.23-.04.52.2.64.19.1.43.06.57-.1,1.33,2.34,2.86,4.57,4.57,6.65.45.44,1.17.44,1.61,0,0,0,0,0,0,0,.07-.07.12-.14.17-.22.95-1.95,2.01-3.84,3.18-5.67,1.3-1.94,2.74-3.77,4.14-5.63,2.63-3.5,5.02-7.16,7.5-10.77,4.33-6.28,8.86-12.4,13.49-18.46,1.29-1.69,2.58-3.37,3.88-5.06,1.51-1.96,3.28-3.88,4.6-5.97.91-1.25.63-3-.61-3.91-.17-.12-.34-.22-.53-.3"/>
    <path id="Path_24024" data-name="Path 24024" class="cls-1" d="m129.3,92.16c-.3,1.08-.74,2.12-1.09,3.19-.19.55-.34,1.11-.45,1.68-.13.54-.16,1.1-.09,1.65.12.53.64.88,1.17.77.53-.17.99-.51,1.32-.96.82-.84,1.62-1.69,2.43-2.54.46-.48-.27-1.21-.73-.73-.66.69-1.31,1.38-1.97,2.07-.32.36-.66.71-1.01,1.03-.06.06-.14.11-.23.13-.07,0,0-.01.02.01-.04-.22-.03-.45.02-.68.17-1.86,1.12-3.56,1.6-5.34.06-.28-.12-.55-.4-.61-.26-.05-.51.09-.6.34"/>
    <path id="Path_24025" data-name="Path 24025" class="cls-1" d="m9.81,115.56c6.72.66,13.46-.96,19.15-4.6,2.85-1.8,5.39-4.05,7.5-6.68,2.3-2.69,3.93-5.88,4.77-9.31.43-1.66.29-3.43-.4-5-.74-1.34-2.17-1.16-3.24-.32-1.29,1.2-2.34,2.64-3.09,4.24-.85,1.54-1.54,3.16-2.06,4.84-1.08,3.43-1.47,7.05-1.15,10.63.16,1.8.51,3.57,1.03,5.3.39,1.53,1.06,2.98,1.99,4.27.88,1.32,2.55,1.86,4.03,1.29.88-.45,1.66-1.09,2.27-1.86.78-.87,1.53-1.78,2.26-2.7,2.89-3.66,5.38-7.63,7.41-11.83.07-.13.02-.28-.11-.35-.12-.06-.26-.02-.34.09-2.73,3.73-4.84,7.87-6.25,12.26-.03.11.02.23.12.29,1.07.71,2.28.04,3.17-.66,1.55-1.22,3.01-2.57,4.51-3.85l9.22-7.89-.43-.25c-.57,1.36-1.09,2.73-1.55,4.13-.5,1.06-.73,2.23-.65,3.4.44,1.96,2.86,1.76,4.37,1.52,5.19-.83,9.87-3.79,15.2-3.83l-.13-.48c-2.52,1.86-5.43,3.14-8.5,3.75l.14.5c10.21-3.98,20.95-6.41,31.88-7.23l-.22-.39c-1.41,2.07-3.68,3.41-6.18,3.63l.18.44c4.37-3.78,9.8-6.12,15.54-6.72,6.07-.74,12.2-1.17,18.07-3.01.32-.1.18-.6-.14-.5-6.2,1.94-12.69,2.28-19.09,3.13-5.47.74-10.6,3.08-14.74,6.73-.1.1-.1.27,0,.37.05.05.11.07.17.07,2.68-.23,5.11-1.66,6.62-3.88.07-.12.03-.28-.1-.35-.04-.02-.08-.03-.12-.03-10.97.82-21.75,3.26-32,7.25-.14.04-.22.18-.18.32.04.14.18.22.32.18,3.12-.62,6.06-1.92,8.62-3.8.12-.08.16-.24.08-.36-.05-.07-.13-.12-.21-.12-4.49.04-8.53,2.1-12.77,3.28-1.46.41-5.8,1.8-6.3-.59-.24-1.11.46-2.56.81-3.59.42-1.24.89-2.46,1.4-3.67.11-.26-.26-.4-.43-.25l-7.92,6.78-3.9,3.33c-1,.86-2.97,3.19-4.45,2.21l.12.29c1.4-4.35,3.5-8.45,6.2-12.14l-.44-.26c-1.6,3.31-3.48,6.47-5.62,9.46-1.12,1.56-2.31,3.06-3.57,4.5-1.09,1.26-2.58,3-4.44,2.26-1.56-.62-2.37-2.41-2.92-3.88-.54-1.46-.95-2.97-1.22-4.5-.56-3.3-.5-6.67.18-9.95.65-3.17,1.89-6.19,3.65-8.91.72-1.1,3.03-4.59,4.42-2.41.99,1.55.64,3.94.19,5.59-1.65,5.97-6.32,11.18-11.41,14.52-5.69,3.78-12.51,5.47-19.3,4.8-.33-.04-.33.48,0,.51"/>
  </g>
</svg>