<svg xmlns="http://www.w3.org/2000/svg" width="211.304" height="128.585" viewBox="0 0 211.304 128.585"><g transform="translate(-114.158 -3250.376)"><path d="M202.543,15.827c-7.559,2-13.714,6.667-16.2,12.277-.449,1.018-.744,2.223.121,3.079a4.861,4.861,0,0,0,2.232,1.009c6.794,1.669,14.148.051,21.216-.8a97.339,97.339,0,0,1,27.63.633c6.026,1.012,12.117,2.612,18.227,1.919s12.093-4.83,10.647-9.243c-.85-2.588-3.953-4.462-7.21-5.634s-6.827-1.844-10-3.136c-5.513-2.245-9.331-6.14-13.726-9.457-4.694-3.54-11.452-9.912-16.64-3.212-1.877,2.422-.172,5.631-2.166,7.936-2.847,3.284-9.578,3.423-14.136,4.631" transform="translate(-71.751 3250.978)" fill="#fff"/><path d="M225.124,35.223c-12.4-.524-18.743-7.933-8.828-15.169,7.092-5.176,17.709-5.541,22.421-12.928a17.793,17.793,0,0,1,4.4-5.36A8.985,8.985,0,0,1,250.943.419c2.724,1.006,3.648,3.534,3.769,5.77s-.235,4.595,1.066,6.622c2.452,3.817,9.207,4.57,14.862,5.3s12.4,3.019,12.34,7.237-6.836,6.4-12.47,7.288a229.129,229.129,0,0,1-45.388,2.588" transform="translate(-20.403 3250.36)" fill="#fff"/><path d="M237.854,26.659c.569-1.2-2.745-1.654-3.341-2.85-1.181-2.371.937-4.959,3.495-6.649A27.18,27.18,0,0,1,250.855,13c3.868-.277,8.234.078,11.177-1.787,4.444-2.811,3.45-9.4,9.108-10.539a7.474,7.474,0,0,1,6.737,2.211A7.193,7.193,0,0,1,279.4,8.48a7.125,7.125,0,0,0,.115,3.606c1.4,3.206,7.215,3.543,11.455,4.82,4.561,1.377,8.041,4.537,8.915,8.1a3.7,3.7,0,0,1-.214,2.781c-.943,1.66-3.534,2.41-5.9,2.868-8.264,1.606-17.36,1.576-25.9,1.3-23.756-.777-31.318-2.564-30.019-5.3" transform="translate(25.405 3251.435)" fill="#fff"/><path d="M191.886,12.563c-.1,5.423-.325,10.849-.612,16.266-.283,5.336-.226,11.09-1.552,16.3a1.13,1.13,0,0,0,2.178.6c1.344-5.278,1.32-11.09,1.612-16.5.3-5.553.53-11.111.633-16.67a1.13,1.13,0,0,0-2.26,0" transform="translate(-64.154 3273.418)" fill="#fff"/><path d="M212.582,12.121c-1.133,9.758-.355,19.689-1.488,29.447-.169,1.44,2.094,1.428,2.26,0,1.133-9.758.356-19.689,1.488-29.447.169-1.443-2.094-1.431-2.26,0" transform="translate(-21.076 3272.556)" fill="#fff"/><path d="M234.945,11.248c-.6,5.345-.5,10.819-.569,16.188-.069,5.4-.193,10.819.057,16.209.066,1.449,2.326,1.455,2.26,0-.25-5.39-.126-10.813-.057-16.209.066-5.369-.027-10.843.569-16.188.16-1.443-2.1-1.431-2.26,0" transform="translate(25.618 3270.798)" fill="#fff"/><path d="M255,11.935c-.816,4.715-.636,9.716-.72,14.483-.084,4.827-.28,9.722.042,14.546.093,1.443,2.356,1.455,2.26,0-.313-4.712-.126-9.493-.048-14.208.078-4.637-.133-9.716.645-14.22.247-1.422-1.931-2.031-2.178-.6" transform="translate(65.59 3272.706)" fill="#fff"/><path d="M-6875.795-2812.958c-12.826,0-19.859-.446-21.5-1.365-1-.563-1.572-2.567-1.685-5.956a79.506,79.506,0,0,1,1.02-13.317c.618-4.113,1.382-7.516,1.738-7.748.259-.167,5.651-.559,13.418-.977,6.356-.339,15.038-.73,20.345-.81,13.516-.2,42.4-.346,58.414-.416a.918.918,0,0,0-.479.516c-.017.052-.034.112-.055.2v.005l0,.009,0,.011a.815.815,0,0,1-.177.379.339.339,0,0,1-.251.1,1.5,1.5,0,0,1-.72-.34l-.026-.017-.171-.116a1.969,1.969,0,0,0-1.117-.3,5.424,5.424,0,0,0-1.168.163l-1.233.27-.725.158-.463.1-.545.119-.1.021-.069.016a3.347,3.347,0,0,0-1.755.765,1.6,1.6,0,0,0-.2,1.969,2.011,2.011,0,0,0,1.015.642,4.964,4.964,0,0,0,1.626.307,1.922,1.922,0,0,0,1.832-.94,4.469,4.469,0,0,0,2.166,1.747,1.452,1.452,0,0,0,.493.107.7.7,0,0,0,.156-.016,1.4,1.4,0,0,0,.653-.458l.008-.009c.033-.036.069-.073.109-.115a3.24,3.24,0,0,1,2.3-.921,3.628,3.628,0,0,1,1.984.592l.154.516a2.246,2.246,0,0,0,.594-.926l.1.021.072.015a4.434,4.434,0,0,0,1.9.443,3.759,3.759,0,0,0,1.342-.239l-.445-.024-.093-.005c-.793-.045-1.442-.08-2.1-.114a5.894,5.894,0,0,1-.6-.061l-.026-.014-.023-.011-.023-.011-.042-.021-.043-.022.014-.042.012-.042,3.961-.594a15.452,15.452,0,0,0,1.376-2.814,1.066,1.066,0,0,0,.1-.6.686.686,0,0,0-.347-.455l5.406-.021.866,0-.479,1.159-.26.628q-.613,1.484-1.228,2.968c-.224.542-.47,1.079-.731,1.647a17.03,17.03,0,0,0-1.7,4.969,4.826,4.826,0,0,0,.534,2.871,3.783,3.783,0,0,0,2.24,1.818,4.568,4.568,0,0,0,.634.144,5.994,5.994,0,0,0,1.617,2.116,6.678,6.678,0,0,0,.648.48,2.464,2.464,0,0,0-.139.732c-.129,3.357-.349,6.706-.651,9.952-11.119.07-21.544.235-32.582.41h-.057l-.311,0h-.036c-8.3.131-16.458.256-24.912.35-1.833.019-4.382.065-7.281.12l-.464.009h-.063C-6860.007-2813.114-6868.2-2812.958-6875.795-2812.958Zm164.477-.764c-8.683,0-20.408-.107-31.746-.21h-.336l-.67-.007-1.1-.01-.183,0c-7.094-.064-15.134-.136-22.291-.173a49.476,49.476,0,0,0-2.171-8.6l-.076-.206,0-.006c-.213-.567-.434-1.154-.7-1.729a3.725,3.725,0,0,0,2.1-.627,4.709,4.709,0,0,0,1.85-3.873,23.327,23.327,0,0,0-.338-4.792l-.006-.04c-.055-.389-.107-.757-.147-1.093s-.059-.716-.079-1.121v-.018a9.419,9.419,0,0,0-.31-2.373,12.532,12.532,0,0,0,1.525-.188l.021,0c.252-.041.491-.081.717-.11a5.52,5.52,0,0,0,3.035-1.282,4.932,4.932,0,0,0,1.533-2.915c.035-.2.067-.394.1-.589,8.6-.019,16.123-.028,21.745-.028,2.71,0,5,0,6.792.005,2.917.005,6.9.005,11.121.005,8.637,0,18.426,0,24.246.052.174,1.484.448,3.142.888,5.376a88.252,88.252,0,0,1,.639,13.208c-.062,3.913-.409,10.546-2.026,11.009C-6697.989-2813.832-6702.608-2813.721-6711.318-2813.721Zm-72.477-.422h0c.223-2.424.4-4.923.531-7.428.119,0,.238,0,.355,0a17.006,17.006,0,0,0,4.153-.526,16.036,16.036,0,0,0,2.48-.871c.056-.025.155-.082.244-.133a2.382,2.382,0,0,1,.807-.358.154.154,0,0,1,.061.01c.688.255,1.228,2.3,1.519,3.392l.014.05.015.056,0,.01c.045.169.083.315.116.424.455,1.523.86,3.229,1.274,5.369-1.705-.006-3.226-.01-4.521-.01h-.783C-6779.829-2814.156-6781.878-2814.152-6783.795-2814.144Zm.491-14.089h0c-.823,0-1.885-.111-2.274-.642a.932.932,0,0,1-.088-.87,1.963,1.963,0,0,0-.064-1.392,5.417,5.417,0,0,0,1.1.982,5.988,5.988,0,0,0,3.407,1.021,9.1,9.1,0,0,0,4.861-1.587,10.533,10.533,0,0,0,3.478-3.677,12.089,12.089,0,0,0,1.006-2.4c.03.24.064.489.094.708.037.268.075.552.108.821.226,1.85.4,3.392.443,5a3.283,3.283,0,0,1-.023.361v.01a4.119,4.119,0,0,0-.028.587,11.926,11.926,0,0,0-1.449-.193h-.008l-.021,0c-.205-.019-.382-.035-.5-.052a9.493,9.493,0,0,0-1.351-.095,20.176,20.176,0,0,0-4.96.838l-.031.008c-.41.1-.833.213-1.253.313A12.013,12.013,0,0,1-6783.3-2828.232Zm-2.979-3.666a2.7,2.7,0,0,0-1.787-.722,2.075,2.075,0,0,0-.4.038l0-.018c.023-.1.043-.179.062-.228.334-.933.734-1.862,1.122-2.76l.007-.017a7.537,7.537,0,0,0,1,3.706Zm5.249-1.843a1.61,1.61,0,0,1-1.743-1.527c-.241-1.68.5-3.368,1.219-5a14.559,14.559,0,0,0,1.169-3.365l4.005-.012,1.473,0a6.834,6.834,0,0,0-1,3.22c-.017.192-.053.406-.091.633v.01a5.248,5.248,0,0,0-.112,1.241q-.016.075-.031.15v.007c-.019.095-.039.193-.064.283a6.538,6.538,0,0,1-2.211,3.416A4.716,4.716,0,0,1-6781.034-2833.74Zm-19.176-5.253a1.551,1.551,0,0,1-.728-.391,1.8,1.8,0,0,1-.329-1.787,2.346,2.346,0,0,1,.5-.807,5.677,5.677,0,0,0-1.384-1.143,4.148,4.148,0,0,0-.831-.427l.057,0c.429,0,.867,0,1.3-.005h.828l1.764-.006,1.1-.005a6.577,6.577,0,0,0-2.253,1.072,4.124,4.124,0,0,0-.583.52,3.336,3.336,0,0,1,.319.457,3.1,3.1,0,0,1,.28,2.4l-.138.021a.162.162,0,0,1,.026.013l.033.02.019.01.035.019a.118.118,0,0,1-.009.028Zm-3.735-4.552h-.1a1.164,1.164,0,0,1,.5-.111h.045a.3.3,0,0,0,.04,0l.009,0a1.733,1.733,0,0,1,.462.1l-.118,0C-6803.384-2843.547-6803.665-2843.547-6803.945-2843.546Zm6.11-.024h-.088a6.517,6.517,0,0,1,1.672-.215c.158,0,.33.006.509.019a1.5,1.5,0,0,1,.658.185l-2.748.01Z" transform="translate(7019.451 6159.698)" fill="#fff" stroke="rgba(0,0,0,0)" stroke-miterlimit="10" stroke-width="1"/><path d="M229.746,26.747a4.283,4.283,0,0,0-3.989-.328,3.872,3.872,0,0,0-.841.518c-.292.238-.524.648-.931.6a3.363,3.363,0,0,1-1.871-1.47.684.684,0,0,0-1.169,0c-.726,1.211-4.236.431-3.308-1.024.488-.765,1.97-.813,2.763-.988a10.215,10.215,0,0,1,3.1-.554c.829.1,1.416,1.1,2.32.657.4-.2.449-.566.624-.925.226-.461.675-.268,1.067-.06a3.992,3.992,0,0,1,1.976,1.913,2.185,2.185,0,0,1-.41,2.287.678.678,0,0,0,.958.958,3.7,3.7,0,0,0-.259-5.188A5.255,5.255,0,0,0,227.1,21.61a1.837,1.837,0,0,0-1.238.241,1.562,1.562,0,0,0-.485.467c-.03.048-.361.651-.283.714l.142-.06c.19-.036.19-.081,0-.136a1.908,1.908,0,0,0-.31-.2,3.182,3.182,0,0,0-.591-.316,3.264,3.264,0,0,0-1.6-.133c-1.229.163-2.449.506-3.658.774a3.709,3.709,0,0,0-2.609,1.395,2.224,2.224,0,0,0,.226,2.66,4.439,4.439,0,0,0,2.832,1.006,2.736,2.736,0,0,0,2.588-1.271h-1.169c.75,1.079,2.567,2.829,4,1.964a9.757,9.757,0,0,0,.859-.756,2.5,2.5,0,0,1,.985-.467,2.992,2.992,0,0,1,2.269.431c.747.455,1.428-.717.684-1.172" transform="translate(-10.915 3293.782)" fill="#fff"/><path d="M221.571,27.5a4.946,4.946,0,0,0,4.028.416.681.681,0,0,0-.181-1.332l-1.823-.1a6.345,6.345,0,0,1-1.473-.136c-.765-.238-.7-1.2-.286-1.729a4.882,4.882,0,0,1,2.483-1.479,5.831,5.831,0,0,1,1.494-.232c.2-.006.536,0,.642.009a1.088,1.088,0,0,1,.238.054c.042.015.118.054.118.054-.021-.03.012-.054.015-.012a1.443,1.443,0,0,1-.151.455c-.106.274-.22.545-.343.81a16.1,16.1,0,0,1-.9,1.681c-.458.744.714,1.425,1.169.684a15.764,15.764,0,0,0,1-1.892,3.289,3.289,0,0,0,.518-2.124c-.413-1.383-2.452-1.139-3.519-.946a6.733,6.733,0,0,0-3.573,1.817,2.632,2.632,0,0,0-.247,3.576,2.81,2.81,0,0,0,2,.72c.883.051,1.762.1,2.642.145-.06-.443-.12-.886-.178-1.332a3.583,3.583,0,0,1-2.986-.28c-.765-.419-1.449.75-.684,1.172" transform="translate(-2.768 3293.678)" fill="#fff"/><path d="M231.1,25.209a3.444,3.444,0,0,0-4.287.328,1.754,1.754,0,0,1-.771.581,1.2,1.2,0,0,1-.648-.09,4.487,4.487,0,0,1-2.166-1.747c-.63,1.175-2.211,1.076-3.459.633a2.008,2.008,0,0,1-1.015-.642,1.6,1.6,0,0,1,.2-1.967,3.342,3.342,0,0,1,1.757-.765l3.13-.687a2.916,2.916,0,0,1,2.287.142c.383.247.862.669,1.169.371.148-.142.163-.395.238-.6a1.028,1.028,0,0,1,1.082-.624,3.025,3.025,0,0,1,1.287.533,4.839,4.839,0,0,1,1.705,1.6,2.919,2.919,0,0,1-.355,3.453" transform="translate(-6.153 3290.856)" fill="none"/><path d="M231.888,25.071a4.283,4.283,0,0,0-3.989-.328,3.874,3.874,0,0,0-.841.518c-.292.238-.524.648-.931.6a3.363,3.363,0,0,1-1.871-1.47.684.684,0,0,0-1.169,0c-.726,1.211-4.236.431-3.308-1.024.488-.765,1.97-.813,2.763-.988a10.213,10.213,0,0,1,3.1-.554c.829.1,1.416,1.1,2.32.657.4-.2.449-.566.624-.925.226-.461.675-.268,1.067-.06a3.992,3.992,0,0,1,1.976,1.913,2.185,2.185,0,0,1-.41,2.287.678.678,0,0,0,.958.958,3.7,3.7,0,0,0-.259-5.188,5.256,5.256,0,0,0-2.675-1.527,1.837,1.837,0,0,0-1.238.241,1.56,1.56,0,0,0-.485.467c-.03.048-.362.651-.283.714l.142-.06c.19-.036.19-.081,0-.136a1.9,1.9,0,0,0-.31-.2,3.186,3.186,0,0,0-.591-.316,3.265,3.265,0,0,0-1.6-.133c-1.229.163-2.449.506-3.657.774a3.709,3.709,0,0,0-2.609,1.395,2.224,2.224,0,0,0,.226,2.66,4.422,4.422,0,0,0,2.832,1.006,2.736,2.736,0,0,0,2.588-1.271h-1.169c.75,1.079,2.567,2.829,4,1.964a9.777,9.777,0,0,0,.859-.756,2.5,2.5,0,0,1,.985-.467,2.992,2.992,0,0,1,2.269.431c.747.455,1.428-.717.684-1.172" transform="translate(-6.602 3290.408)" fill="#fff"/><path d="M223.608,24.779a4.178,4.178,0,0,0,3.5.346l-2.642-.145a2.176,2.176,0,0,1-1.494-.488,1.8,1.8,0,0,1-.328-1.787,2.9,2.9,0,0,1,1.082-1.326,6.648,6.648,0,0,1,4.444-1.268c.4.027.91.193,1.006.642a1.123,1.123,0,0,1-.1.6,15.826,15.826,0,0,1-1.377,2.814" transform="translate(1.991 3290.771)" fill="none"/><path d="M223.713,25.829a4.945,4.945,0,0,0,4.028.416.681.681,0,0,0-.181-1.332l-1.823-.1a6.345,6.345,0,0,1-1.473-.136c-.765-.238-.7-1.2-.286-1.729a4.882,4.882,0,0,1,2.483-1.479,5.831,5.831,0,0,1,1.494-.232c.2-.006.536,0,.642.009a1.087,1.087,0,0,1,.238.054,1.289,1.289,0,0,1,.117.054c-.021-.03.012-.054.015-.012a1.447,1.447,0,0,1-.151.455c-.105.274-.22.545-.344.81a16.087,16.087,0,0,1-.9,1.681c-.458.744.714,1.425,1.169.684a15.762,15.762,0,0,0,1-1.892,3.288,3.288,0,0,0,.518-2.124c-.413-1.383-2.452-1.139-3.519-.946a6.734,6.734,0,0,0-3.573,1.817,2.632,2.632,0,0,0-.247,3.576,2.81,2.81,0,0,0,2,.72c.883.051,1.762.1,2.642.145-.06-.443-.121-.886-.178-1.332a3.583,3.583,0,0,1-2.986-.28c-.765-.419-1.449.75-.684,1.172" transform="translate(1.542 3290.305)" fill="#fff"/><path d="M209.217,19.327c-1.2-.443-2.371.392-3.573.265-1.076-.114-1.756-1.1-2.853-.554-.72.356-1.009,1.061-1.9,1.133-1.184.1-2.266-.807-3.32.211a1.548,1.548,0,0,0,.115,2.32c.485.307,1.16.283,1.546.7.434.473.265,1.214.157,1.847s.006,1.467.627,1.63c.38.1.8-.118,1.172.018.8.3.359,1.648.961,2.245a1.638,1.638,0,0,0,.714.349l3.04.9a1.088,1.088,0,0,0,.5.066.919.919,0,0,0,.485-.322,3.25,3.25,0,0,0,.509-3.531,1.7,1.7,0,0,1-.256-.723.9.9,0,0,1,.931-.783,2.34,2.34,0,0,1,1.241.473c.636.413,1.534.865,2.064.319a1.436,1.436,0,0,0,.307-.976,7.916,7.916,0,0,0-1.03-4.185,2.963,2.963,0,0,0-1.431-1.407" transform="translate(-49.218 3288.319)" fill="none"/><path d="M209.846,19.115a5.126,5.126,0,0,0-2.7.145,2.409,2.409,0,0,1-1.347.009c-.383-.127-.729-.346-1.109-.479a2.288,2.288,0,0,0-2.166.343c-.268.193-.494.455-.774.63a1.612,1.612,0,0,1-1.247.1,3.457,3.457,0,0,0-2.356.048,2.312,2.312,0,0,0-1.247,1.8,2.1,2.1,0,0,0,.693,1.874,2.841,2.841,0,0,0,.985.473c.506.157.735.286.7.856a4.338,4.338,0,0,0,.036,2.187,1.563,1.563,0,0,0,1.741.9c.443-.039.413.127.479.536a3.834,3.834,0,0,0,.244,1.021c.368.816,1.2.988,1.985,1.223l1.521.452a4.37,4.37,0,0,0,1.564.353c.8-.072,1.35-.892,1.642-1.567a4.035,4.035,0,0,0,.256-2.389c-.075-.38-.338-.726-.407-1.091-.124-.672.892-.039,1.16.124a2.5,2.5,0,0,0,2.449.422c.91-.5.907-1.66.844-2.564-.139-1.862-.9-4.513-2.781-5.33-.792-.346-1.485.822-.684,1.169,1.464.639,2.034,2.829,2.115,4.281.015.259.13,1.021-.078,1.2-.253.214-.7-.069-.925-.193a3.959,3.959,0,0,0-1.922-.771,1.657,1.657,0,0,0-1.485.934c-.325.747.187,1.292.365,1.988a2.615,2.615,0,0,1-.292,1.973c-.292.479-.581.419-1.079.271l-1.395-.416c-.566-.169-1.549-.229-1.7-.889a3.454,3.454,0,0,0-.5-1.621,1.37,1.37,0,0,0-.618-.422c-.334-.1-.639.024-.961-.024s-.35-.087-.374-.473a5.335,5.335,0,0,1,.117-1,2.2,2.2,0,0,0-.334-1.687,1.775,1.775,0,0,0-.708-.545,5.024,5.024,0,0,1-1.079-.4.915.915,0,0,1,.259-1.434c.609-.319,1.452.087,2.088.151a2.535,2.535,0,0,0,1.946-.591,3.118,3.118,0,0,1,.853-.636,1.27,1.27,0,0,1,.958.163,4.106,4.106,0,0,0,2.187.485c.91-.1,1.8-.554,2.717-.274.838.256,1.2-1.051.361-1.308" transform="translate(-49.667 3287.878)" fill="#fff"/><path d="M192.094,25.647a2.354,2.354,0,0,1,2.44-2.148c1.6-.184.961-1.485,1.247-2.621a2.966,2.966,0,0,1,4.329-1.889c1.094.606,1.747,1.862,2.9,2.362a10.26,10.26,0,0,1,1.838.663c1.045.717.988,2.245,1.353,3.465.253.826.732,1.567,1.006,2.386a2.47,2.47,0,0,1-.3,2.446c-.47.512-1.262.711-1.579,1.329a4.214,4.214,0,0,0-.247.994c-.359,1.57-2.073,2.455-3.67,2.66a8.367,8.367,0,0,1-9.316-9.647" transform="translate(-59.509 3287.826)" fill="none"/><path d="M193.185,26.278a1.726,1.726,0,0,1,.907-1.425c.606-.28,1.314-.172,1.892-.527,1.082-.669.627-1.916.928-2.931.572-1.955,2.8-1.97,4.079-.759a14.382,14.382,0,0,0,1.509,1.4,16.582,16.582,0,0,0,2.227.892,2.238,2.238,0,0,1,.931,1.687,11.852,11.852,0,0,0,.588,2.2,7.422,7.422,0,0,1,.892,2.44c.051,1.009-.642,1.259-1.326,1.79a2.566,2.566,0,0,0-.925,1.735,2.557,2.557,0,0,1-1.365,1.735,6.381,6.381,0,0,1-4.6.374,7.768,7.768,0,0,1-5.733-8.608c.12-.853-1.184-1.223-1.311-.362a9.153,9.153,0,0,0,4.989,9.659c2.823,1.326,8.321,1.582,9.306-2.311.13-.518.112-.892.579-1.235a9.73,9.73,0,0,0,.925-.642,2.821,2.821,0,0,0,.774-2.555,14.615,14.615,0,0,0-1.067-2.811c-.307-.844-.337-1.756-.639-2.6a2.855,2.855,0,0,0-1.555-1.766c-.431-.19-.9-.25-1.338-.422a3.676,3.676,0,0,1-1.229-.886,6.922,6.922,0,0,0-2.106-1.666,3.748,3.748,0,0,0-2.636-.072,3.586,3.586,0,0,0-2.088,1.916,3.875,3.875,0,0,0-.328,1.347c-.024.31.093.895-.081,1.166-.208.325-.759.265-1.106.343a3.468,3.468,0,0,0-1.1.422,3.031,3.031,0,0,0-1.3,2.112c-.163.853,1.148,1.22,1.311.362" transform="translate(-59.946 3287.375)" fill="#fff"/><path d="M246.235,55.516,243.5,40.609c-.705-3.826-1.425-7.7-3.112-11.208a3,3,0,0,0-.85-1.136,2.649,2.649,0,0,0-2.458-.325,14.09,14.09,0,0,1-9.279,1.452,177.243,177.243,0,0,1-3.139,27.477l20.909-.569a.757.757,0,0,0,.624-.22.738.738,0,0,0,.045-.563" transform="translate(6.242 3306.228)" fill="#779c78"/><path d="M252.13,21.765a6.161,6.161,0,0,0-.75-2.91,2.665,2.665,0,0,0-2.7-1.256,2.363,2.363,0,0,0-1.832,2.154c.021,2.058,2.22,2.437,2.323,3.4.241,2.22.826,5.489-.16,5.9-.368.154-4.953,1.142-5.441,1.341a3.366,3.366,0,0,0-2.29,2.323L241.01,35.7s-.765,5.3-5.694,6.643a8.082,8.082,0,0,1-2.9.1,3.714,3.714,0,0,1-2.546-3.2c-.563-3.392,2.112-6.484,2.434-9.575l-3.139-.919q-2.354,5.694-4.712,11.391c-.455,1.1-.91,2.359-.362,3.423s2.594,1.283,2.91.139c-.717,1.738.865,3.7,2.772,4.233a11.188,11.188,0,0,0,5.875-.476,13.1,13.1,0,0,1,5.872-.705c1.371.268,3.124.874,3.935-.2a2.337,2.337,0,0,0,.368-1.139c.337-2.712-.94-10.039-.826-10.5.093-.386-.006-.841.319-1.1,1.808-1.428,5.076-.1,6.218-2.04a4.615,4.615,0,0,0,.494-1.922,46.571,46.571,0,0,0,.1-8.1" transform="translate(4.6 3285.644)" fill="#779c78"/><path d="M228.8,37.724c-.762.148-1.624.033-2.386.181-.087.006-.2.042-.283.042a56.143,56.143,0,0,0,.56,7.348q.949-.371,1.9-.738a.873.873,0,0,0,.461-.319,1.818,1.818,0,0,0,.19-.862c.066-1.208-.145-5.773-.44-5.652" transform="translate(9.217 3326.253)" fill="#779c78"/><path d="M233.4,37.61c-1.521.169-2.477.06-4.191.208a49.031,49.031,0,0,0,1.145,8.442c1.265-.313,2.362-.057,2.407-.389a62.76,62.76,0,0,0,.639-8.261" transform="translate(15.399 3326.029)" fill="#779c78"/><path d="M230.23,41.12q-.38,1.952-.759,3.908a1.512,1.512,0,0,0,.181,1.377,1.312,1.312,0,0,0,1.588.06,2.523,2.523,0,0,0,.9-1.317,7.5,7.5,0,0,0,.437-2.721,2,2,0,0,0-.461-1.392,1.061,1.061,0,0,0-1.44-.084" transform="translate(15.775 3332.261)" fill="#779c78"/><path d="M226.789,41l-.633,3.417a1.219,1.219,0,0,0,.229,1.208,1.467,1.467,0,0,0,1.588.051,2.1,2.1,0,0,0,.862-1.151,5.653,5.653,0,0,0,.346-2.38,1.653,1.653,0,0,0-.506-1.217,1.178,1.178,0,0,0-1.443-.075" transform="translate(9.147 3332.127)" fill="#779c78"/><path d="M246.235,55.516,243.5,40.609c-.705-3.826-1.425-7.7-3.112-11.208a3,3,0,0,0-.85-1.136,2.649,2.649,0,0,0-2.458-.325,14.09,14.09,0,0,1-9.279,1.452,177.243,177.243,0,0,1-3.139,27.477l20.909-.569a.757.757,0,0,0,.624-.22.738.738,0,0,0,.045-.563" transform="translate(6.242 3306.228)" fill="#fff"/><path d="M252.13,21.765a6.161,6.161,0,0,0-.75-2.91,2.665,2.665,0,0,0-2.7-1.256,2.363,2.363,0,0,0-1.832,2.154c.021,2.058,2.22,2.437,2.323,3.4.241,2.22.826,5.489-.16,5.9-.368.154-4.953,1.142-5.441,1.341a3.366,3.366,0,0,0-2.29,2.323L241.01,35.7s-.765,5.3-5.694,6.643a8.082,8.082,0,0,1-2.9.1,3.714,3.714,0,0,1-2.546-3.2c-.563-3.392,2.112-6.484,2.434-9.575l-3.139-.919q-2.354,5.694-4.712,11.391c-.455,1.1-.91,2.359-.362,3.423s2.594,1.283,2.91.139c-.717,1.738.865,3.7,2.772,4.233a11.188,11.188,0,0,0,5.875-.476,13.1,13.1,0,0,1,5.872-.705c1.371.268,3.124.874,3.935-.2a2.337,2.337,0,0,0,.368-1.139c.337-2.712-.94-10.039-.826-10.5.093-.386-.006-.841.319-1.1,1.808-1.428,5.076-.1,6.218-2.04a4.615,4.615,0,0,0,.494-1.922,46.571,46.571,0,0,0,.1-8.1" transform="translate(4.6 3285.644)" fill="#fff"/><path d="M235.064,26.521c.25-1.735.991-3.386,1.1-5.14s-.693-3.778-2.392-4.218a5.108,5.108,0,0,0-3.429-.045l-.407.22c-2.214,1.277-2.766,4.254-2.516,6.8.19,1.955.7,3.914.732,5.86a5.981,5.981,0,0,1,.22,2.223c-.467,2.519-1.91,4.251-1.964,6.812-.027,1.407.151,3.067,1.518,3.389a3.345,3.345,0,0,0,2-.274,7.508,7.508,0,0,0,4.212-5,18.671,18.671,0,0,0,.8-6.227,16.6,16.6,0,0,1,.13-4.4" transform="translate(9.763 3284.208)" fill="#fff"/><path d="M228.8,37.724c-.762.148-1.624.033-2.386.181-.087.006-.2.042-.283.042a56.143,56.143,0,0,0,.56,7.348q.949-.371,1.9-.738a.873.873,0,0,0,.461-.319,1.818,1.818,0,0,0,.19-.862c.066-1.208-.145-5.773-.44-5.652" transform="translate(9.217 3326.253)" fill="#fff"/><path d="M233.4,37.61c-1.521.169-2.477.06-4.191.208a49.031,49.031,0,0,0,1.145,8.442c1.265-.313,2.362-.057,2.407-.389a62.76,62.76,0,0,0,.639-8.261" transform="translate(15.399 3326.029)" fill="#fff"/><path d="M230.23,41.12q-.38,1.952-.759,3.908a1.512,1.512,0,0,0,.181,1.377,1.312,1.312,0,0,0,1.588.06,2.523,2.523,0,0,0,.9-1.317,7.5,7.5,0,0,0,.437-2.721,2,2,0,0,0-.461-1.392,1.061,1.061,0,0,0-1.44-.084" transform="translate(15.775 3332.261)" fill="#fff"/><path d="M226.789,41l-.633,3.417a1.219,1.219,0,0,0,.229,1.208,1.467,1.467,0,0,0,1.588.051,2.1,2.1,0,0,0,.862-1.151,5.653,5.653,0,0,0,.346-2.38,1.653,1.653,0,0,0-.506-1.217,1.178,1.178,0,0,0-1.443-.075" transform="translate(9.147 3332.127)" fill="#fff"/></g></svg>