<svg xmlns="http://www.w3.org/2000/svg" width="306.398" height="336.626" viewBox="0 0 306.398 336.626">
  <g id="组_11155" data-name="组 11155" transform="translate(99 -138.001)">
    <g id="组_11065" data-name="组 11065" transform="translate(-99 138.001)">
      <path id="路径_23911" data-name="路径 23911" d="M90.618,173.444l-3.7.636c.031.294.055.589.075.884l.1.019q-1.758,41.936-2.763,83.9c-.736,30.755-1.168,61.517-1.6,92.277l9.024,2.22c1.76-37.244-.315-169.226-1.132-179.935" transform="translate(-8.311 -17.425)" fill="#fff"/>
      <path id="路径_23912" data-name="路径 23912" d="M90.363,172.72l-3.7.636a.674.674,0,0,0-.495.65q.045.441.074.884a.69.69,0,0,0,.5.65l.1.019-.5-.65q-1.441,34.423-2.378,68.866-.935,34.387-1.422,68.785-.3,19.263-.564,38.526a.685.685,0,0,0,.5.65l9.024,2.219a.683.683,0,0,0,.854-.65c.486-10.336.559-20.695.631-31.039.1-14.353.065-28.708-.019-43.061q-.134-22.72-.442-45.437-.254-19.086-.637-38.17c-.148-7.083-.223-14.182-.6-21.258-.018-.323-.037-.647-.061-.97-.065-.86-1.414-.867-1.349,0,.465,6.153.447,12.368.585,18.532q.41,18.309.645,36.622.318,22.533.478,45.068.151,21.933.083,43.868c-.052,11.007-.121,22.023-.539,33.024q-.054,1.411-.12,2.822l.855-.65-9.024-2.22.495.651c.323-22.922.645-45.843,1.093-68.762q.673-34.425,1.813-68.836.65-19.292,1.458-38.578a.678.678,0,0,0-.5-.65l-.1-.019.495.65q-.03-.443-.074-.884l-.5.65,3.7-.636c.854-.147.492-1.446-.359-1.3" transform="translate(-8.236 -17.352)" fill="#fff"/>
      <path id="路径_23913" data-name="路径 23913" d="M111.545,180.451,57.15,178.969q-.185,2.552-.371,5.1c.551-1.079,38.678.978,56.395,2.009a7.976,7.976,0,0,0-1.777-4.751" transform="translate(-5.704 -17.981)" fill="#fff"/>
      <path id="路径_23914" data-name="路径 23914" d="M111.469,179.7l-54.395-1.482a.69.69,0,0,0-.675.675q-.185,2.552-.371,5.1c-.051.711.918.86,1.258.341-.209.318-.354.2.072.151.05-.005.651-.057.906-.069,1.043-.054,2.089-.055,3.132-.051,3.432.011,6.864.125,10.294.247,9.229.33,18.455.8,27.678,1.3q6.865.368,13.73.768a.678.678,0,0,0,.675-.675,9.157,9.157,0,0,0-1.974-5.228c-.532-.685-1.481.276-.954.953A7.568,7.568,0,0,1,112.423,186l.675-.675q-13.523-.787-27.054-1.449c-8.206-.394-16.431-.837-24.648-.863-1.166,0-2.338-.01-3.5.073-.575.04-1.416.019-1.774.565l1.258.34q.185-2.55.371-5.1l-.675.675,54.395,1.482a.675.675,0,0,0,0-1.349" transform="translate(-5.629 -17.905)" fill="#fff"/>
      <path id="路径_23915" data-name="路径 23915" d="M59.355,174.669a6.222,6.222,0,0,1-.249-2.227,4.389,4.389,0,0,1,.166-1.033c.009-.031.019-.062.029-.093s.056-.139.023-.067.017-.031.02-.035c.022-.035.041-.072.064-.107-.077.121.087-.092.033-.032s.02-.022.034-.017l-.057.022a.534.534,0,0,1,.082-.023l.027-.006-.068.012c.034,0,.076,0,.112,0-.167-.008.082.033.015.012s.014.006.026.013c.035.019.067.04.1.06.009,0,.083.064.028.017s.052.058.064.068.073.1.008,0l.048.076c0,.008.06.114.038.066s.022.062.02.057a1.226,1.226,0,0,1,.076.438,4.677,4.677,0,0,1-.015.527c-.007.087-.014.175-.023.262,0,.035-.008.071-.012.106.006-.056.014-.094,0-.016a5.713,5.713,0,0,1-.224.826c.043-.127-.023.049-.047.1-.032.064-.067.128-.105.19s-.138.186-.044.076c-.043.05-.086.1-.134.148-.023.022-.049.04-.072.063.031-.031.1-.06.023-.022-.026.014-.055.031-.08.047-.1.062.084-.013.014-.006a.42.42,0,0,0-.066.019c-.108.038.081.016.018,0a.313.313,0,0,0-.071,0c-.154.01.138.031-.022,0a.675.675,0,0,0-.359,1.3c1.914.39,2.547-1.983,2.569-3.428a2.161,2.161,0,0,0-1.485-2.3,1.473,1.473,0,0,0-1.419.415,2.525,2.525,0,0,0-.564,1.286,7.761,7.761,0,0,0,.175,3.571.675.675,0,1,0,1.3-.359" transform="translate(-5.802 -17.051)" fill="#fff"/>
      <path id="路径_23916" data-name="路径 23916" d="M77.641,174.6c-.032-.049-.059-.1-.088-.151-.056-.1.034.126,0-.018-.013-.055-.025-.112-.04-.166s.013.069.01.073a1.086,1.086,0,0,0-.007-.129c0-.05.007-.1.006-.15,0-.089-.034.135-.007.049.006-.02.007-.043.012-.064.013-.057.027-.113.045-.169.009-.028.02-.055.029-.083.039-.115-.05.087-.007.02.024-.037.128-.285.17-.282.006,0-.113.128-.022.034l.059-.065a.919.919,0,0,1,.129-.118c.013.01-.122.082-.032.028.025-.015.049-.032.073-.047s.051-.027.076-.042c.068-.04.006.009,0,0s-.071.022.022-.005c.029-.009.058-.019.086-.026l.071-.017c.151-.04-.145,0,.011,0,.056,0,.111,0,.166,0,.031,0,.063.006.094.006.082,0-.067,0-.061-.008.021-.017.162.035.186.042l.092.03c.12.034-.077-.041-.005,0s.273.1.314.182c0-.008-.119-.1-.022-.016l.073.065c.048.044.09.093.136.139.084.086,0-.011-.013-.024a.663.663,0,0,1,.056.079c.031.047.06.1.087.145.015.029.028.058.043.086.043.082-.037-.116-.013-.027.02.07.042.139.06.21,0,.017.031.094.005.008s0,.008,0,.037a1.668,1.668,0,0,1,0,.177c0,.034,0,.067-.005.1-.007.137.007-.021,0-.029a.6.6,0,0,1-.051.222c-.007.024-.015.049-.023.072s-.016.049-.025.072c-.018.047-.012.031.019-.044.013.02-.082.163-.093.182-.039.067-.084.13-.126.193-.051.079.076-.084.011-.015-.029.031-.056.066-.085.1q-.08.084-.167.159l-.059.049c.129-.1-.006,0-.031.014a1.809,1.809,0,0,1-.177.1.547.547,0,0,1-.093.044c.108-.031.038-.018-.03,0a.675.675,0,0,0,.358,1.3,2.842,2.842,0,0,0,1.745-1.657,2.374,2.374,0,0,0-.225-2.224,2.559,2.559,0,0,0-1.986-1.119,2.155,2.155,0,0,0-1.876,1.044,2.2,2.2,0,0,0-.043,2.323.675.675,0,1,0,1.165-.681" transform="translate(-7.652 -17.272)" fill="#fff"/>
      <path id="路径_23917" data-name="路径 23917" d="M99.082,175.767a9.1,9.1,0,0,1-.534-.834c-.035-.066-.069-.131-.1-.2-.019-.038-.037-.076-.053-.114.012.027.04.109,0-.013a3.563,3.563,0,0,1-.122-.449c-.022-.1,0,.1,0-.006,0-.041-.006-.084-.006-.125,0-.059,0-.2-.009-.06a.775.775,0,0,1,.04-.18c.01-.034.024-.067.032-.1.019-.075-.057.1,0-.01.031-.054.058-.11.091-.162.012-.018.076-.112.023-.039s0,0,.013-.013c.048-.05.1-.1.147-.145-.017.016-.117.076-.016.013.029-.017.056-.036.085-.052a.427.427,0,0,1,.088-.045c-.016,0-.143.04-.024.017.017,0,.085-.029.094-.022s-.143,0-.058.011a.4.4,0,0,0,.1,0c.079-.012-.058.006-.055-.008s.092.023.1.026c.115.029-.036-.033.015.009a.706.706,0,0,0,.094.058c.064.037-.02-.013-.027-.022.05.055.105.105.156.16-.084-.091.014.028.04.071s.121.26.067.11a2.357,2.357,0,0,1,.1.33.356.356,0,0,1,.017.1c0-.008-.013-.166-.006-.033,0,.066.008.13.008.2s0,.114-.007.172c-.009.171.027-.1-.009.064a3.041,3.041,0,0,1-.1.358.465.465,0,0,1-.035.093c.084-.115.021-.047,0,0-.033.066-.067.131-.105.2s-.071.111-.108.166c-.067.1,0,0,.015-.02-.027.031-.053.063-.08.093-.044.049-.091.1-.139.139-.024.022-.051.041-.074.065-.054.057.1-.068,0,0a2.536,2.536,0,0,1-.388.213.677.677,0,0,0-.242.923.7.7,0,0,0,.924.242,2.982,2.982,0,0,0,1.527-3.646,1.894,1.894,0,0,0-2.14-1.348,2.132,2.132,0,0,0-1.491,1.813,3.992,3.992,0,0,0,.98,2.7.675.675,0,1,0,1.165-.681" transform="translate(-9.737 -17.269)" fill="#fff"/>
      <path id="路径_23918" data-name="路径 23918" d="M115.8,177.509a6.319,6.319,0,0,0,.028-1.374c-.016-.212-.034-.425-.04-.637q0-.15,0-.3c0-.05,0-.1.008-.149.006-.077.02-.116,0-.017a3.788,3.788,0,0,1,.122-.445c.031-.093-.052.1,0,.011.018-.031.032-.065.049-.1.039-.071.085-.136.128-.2-.077.125.027-.027.063-.063s.067-.056.094-.086c.057-.064-.094.043-.015.015a.642.642,0,0,0,.085-.05c.027-.016.118-.037.031-.018s.014,0,.037-.005c.112-.027.038-.04-.005-.006.013-.011.083,0,.1,0,.166-.009-.047-.031.037,0a.706.706,0,0,0,.121.034c.094.021-.07-.047.012.005s.145.085.216.13c.088.056-.062-.066,0,0,.031.031.067.059.1.091s.059.067.091.1c.069.066-.059-.09-.005-.011.04.059.08.117.116.179.018.031.035.062.051.094s.061.122.022.041.008.022.015.044c.015.041.03.085.042.127.022.078.035.157.055.236.023.1-.007-.119,0-.02,0,.035.006.071.008.107a2.127,2.127,0,0,1,0,.214c0,.036-.006.071-.008.107s0,.035.006-.048c0,.027-.01.053-.015.079a2.049,2.049,0,0,1-.056.206c-.007.021-.045.129-.013.045s-.011.021-.021.041a1.811,1.811,0,0,1-.108.185c-.012.018-.077.111-.025.04s-.054.06-.067.075c-.055.058-.114.112-.175.166-.093.082-.01.006.01-.007-.045.03-.088.061-.134.089a2.582,2.582,0,0,1-.237.126c.138-.066-.071.022-.116.034-.077.023-.155.04-.234.057-.125.025,0,0,.02,0-.053,0-.106.008-.16.009a2.2,2.2,0,0,1-.266-.012c.026,0,.141.029.021,0-.052-.013-.1-.024-.156-.039a.675.675,0,1,0-.359,1.3,2.8,2.8,0,0,0,2.524-.567,2.694,2.694,0,0,0-.733-4.5,1.888,1.888,0,0,0-2.312,1.079,3.378,3.378,0,0,0-.31,1.581c.008.288.038.575.057.862.01.149.017.3.017.449,0,.049,0,.1,0,.149s-.005.1-.009.148c-.009.085-.01.1,0,.043a.694.694,0,0,0,.47.83.683.683,0,0,0,.83-.471" transform="translate(-11.497 -17.354)" fill="#fff"/>
      <path id="路径_23919" data-name="路径 23919" d="M215.618,1.488c-5.563,6.331-11.366,12.449-17.235,18.494Q187.7,30.991,176.714,41.709q-12.2,11.978-24.562,23.779-12.6,12.057-25.283,24.022-12.1,11.429-24.215,22.832-10.649,10.037-21.26,20.115c-5.511,5.251-11.011,10.515-16.421,15.871-3.317,3.283-6.7,6.563-9.719,10.124a80.27,80.27,0,0,0-5.139,7.276c-3.64,5.4-7.229,10.839-10.859,16.247-7.6,11.322-15.267,22.715-24.035,33.18-1.738,2.075-3.532,4.1-5.416,6.048-.605.624.348,1.579.954.954,8.928-9.2,16.309-19.963,23.551-30.5,3.9-5.679,7.729-11.411,11.55-17.145,3.071-4.608,6.053-9.308,9.3-13.8a78.7,78.7,0,0,1,7.7-8.374c4.9-4.947,9.92-9.78,14.948-14.6q10.079-9.657,20.249-19.217,11.827-11.16,23.665-22.308,12.623-11.909,25.2-23.872,12.527-11.941,24.939-24,11.394-11.1,22.587-22.409C200.7,19.584,206.9,13.16,212.9,6.554q1.853-2.041,3.675-4.112c.571-.65-.38-1.608-.954-.954" transform="translate(-0.966 -0.128)" fill="#fff"/>
      <path id="路径_23920" data-name="路径 23920" d="M242.813.3a121.444,121.444,0,0,1-10.776,12.862c-5.747,6.245-11.71,12.293-17.731,18.275q-11.167,11.1-22.613,21.908-12.643,12.007-25.47,23.82-13.03,12.025-26.194,23.906-12.508,11.3-25.122,22.479Q104,133.219,92.991,142.776c-5.526,4.79-11.071,9.56-16.685,14.247a60.945,60.945,0,0,0-7.972,7.391c-2.7,3.23-5.007,6.8-7.491,10.2q-7.632,10.44-15.9,20.392A420.517,420.517,0,0,1,9.592,232.6Q4.97,236.948.218,241.155c-.651.577.306,1.528.954.954A421.978,421.978,0,0,0,37.639,205.6q8.545-9.676,16.486-19.864,3.953-5.072,7.754-10.262c2.587-3.534,4.961-7.3,7.836-10.6,3.3-3.794,7.478-6.816,11.308-10.056q4.225-3.573,8.414-7.187,10.488-9.031,20.858-18.2,12.326-10.87,24.545-21.862,13.219-11.885,26.319-23.9,13-11.926,25.839-24.014,11.824-11.144,23.446-22.5c6.44-6.319,12.824-12.7,19.026-19.258,4.357-4.607,8.7-9.278,12.582-14.3.663-.855,1.311-1.722,1.924-2.611.495-.716-.673-1.392-1.164-.681" transform="translate(0 -0.001)" fill="#fff"/>
      <path id="路径_23921" data-name="路径 23921" d="M276.262,4.276Q266.99,12.023,257.657,19.7q-12.889,10.637-25.8,21.25-15.051,12.387-30.1,24.774-15.807,13.014-31.6,26.049-14.966,12.36-29.9,24.76-12.724,10.576-25.388,21.223c-6.033,5.084-12.061,10.178-17.993,15.38a279.31,279.31,0,0,0-19.887,19.78C66.381,184.293,56.512,196.277,46.8,208.43c-9.925,12.424-20.091,24.613-30.985,36.207Q10.48,250.32,4.987,255.856c-.611.618.343,1.572.954.954q18.692-18.89,35.452-39.5c9.216-11.367,18.195-22.914,27.884-33.888,6.391-7.239,13.017-14.268,19.8-21.136,1.9-1.928,3.827-3.8,5.842-5.613,5.148-4.623,10.432-9.1,15.709-13.57q11.866-10.059,23.834-20,14.506-12.087,29.065-24.111,15.729-13,31.485-25.976,15.409-12.693,30.827-25.375,13.554-11.153,27.1-22.314,10.3-8.488,20.565-17.007,1.855-1.542,3.708-3.089c.667-.558-.292-1.508-.954-.954" transform="translate(-0.481 -0.413)" fill="#fff"/>
      <path id="路径_23922" data-name="路径 23922" d="M305.545,3.478c-7.573,7.151-15.448,13.981-23.414,20.689-9.532,8.026-19.222,15.862-28.984,23.606q-16.036,12.72-32.308,25.139-16.13,12.35-32.391,24.525-15.069,11.3-30.2,22.521Q145.523,129.4,132.8,138.842c-6.08,4.525-12.164,9.047-18.172,13.665a104.136,104.136,0,0,0-11.029,9.558q-22.286,22.626-44.613,45.214T14.3,252.416q-5.512,5.556-11.027,11.111a.675.675,0,0,0,.954.954Q26.6,241.942,48.934,219.364t44.632-45.2c6.2-6.284,12.056-12.922,19.01-18.376,5.282-4.143,10.671-8.151,16.05-12.166q11.979-8.943,24-17.829,14.689-10.9,29.346-21.837,16.185-12.1,32.274-24.33Q230.406,67.327,246.4,54.8q15.115-11.867,29.961-24.073c8.485-7.016,16.884-14.146,25.026-21.56q2.577-2.346,5.114-4.739c.632-.6-.323-1.551-.954-.954" transform="translate(-0.309 -0.331)" fill="#fff"/>
    </g>
  </g>
</svg>
