<?xml version="1.0" encoding="UTF-8"?>
<svg id="_圖層_2" data-name="圖層 2" xmlns="http://www.w3.org/2000/svg" width="33" height="33" viewBox="0 0 33 33">
  <defs>
    <style>
      .cls-1 {
        fill: #727272;
        fill-rule: evenodd;
      }
    </style>
  </defs>
  <g id="Group_10985" data-name="Group 10985">
    <path id="Path_23898" data-name="Path 23898" class="cls-1" d="m16.75,25.35l-3.86-3.83-5.49,4.42c-.12.1-.3.09-.4-.03-.1-.11-.11-.28-.03-.4l4.46-5.41-3.87-3.83c-.29-.3-.39-.73-.24-1.12.14-.4.5-.67.92-.7,1.32-.05,2.62.29,3.76.96l5.73-4.55c-.49-.93-.7-1.98-.62-3.02.07-.53.55-.91,1.08-.84.18.02.34.09.48.2l7.22,7.15c.33.41.26,1.02-.15,1.35-.14.11-.32.19-.5.2-1.06.09-2.12-.12-3.05-.62l-4.6,5.68c.67,1.12,1,2.41.97,3.72-.03.42-.3.78-.7.91-.38.15-.82.06-1.11-.24Z"/>
  </g>
</svg>