<?xml version="1.0" encoding="UTF-8"?>
<svg id="_圖層_2" data-name="圖層 2" xmlns="http://www.w3.org/2000/svg" width="33" height="33" viewBox="0 0 33 33">
  <defs>
    <style>
      .cls-1 {
        fill: #fff;
      }
    </style>
  </defs>
  <path class="cls-1" d="m17.91,16.5l7.42-7.42c.39-.39.39-1.02,0-1.41-.39-.39-1.02-.39-1.41,0l-7.42,7.42-7.43-7.42c-.39-.39-1.02-.39-1.41,0-.39.39-.39,1.02,0,1.41l7.42,7.42-7.42,7.42c-.39.39-.39,1.02,0,1.41s1.02.39,1.41,0l7.42-7.42,7.42,7.42c.39.39,1.02.39,1.41,0s.39-1.02,0-1.41l-7.42-7.42Z"/>
</svg>